<?xml version="1.0" encoding="UTF-8" standalone="no"?>
<svg
   xmlns:dc="http://purl.org/dc/elements/1.1/"
   xmlns:cc="http://creativecommons.org/ns#"
   xmlns:rdf="http://www.w3.org/1999/02/22-rdf-syntax-ns#"
   xmlns:svg="http://www.w3.org/2000/svg"
   xmlns="http://www.w3.org/2000/svg"
   width="1.4980521in"
   height="1.5488138in"
   viewBox="0 0 449.41564 464.64415"
   version="1.1"
   id="svg8">
  <defs
     id="defs2" />
  <metadata
     id="metadata5">
    <rdf:RDF>
      <cc:Work
         rdf:about="">
        <dc:format>image/svg+xml</dc:format>
        <dc:type
           rdf:resource="http://purl.org/dc/dcmitype/StillImage" />
        <dc:title></dc:title>
      </cc:Work>
    </rdf:RDF>
  </metadata>
  <g
     id="layer1"
     transform="matrix(0.78971827,0,0,0.78971827,-107.33808,-2344.3578)">
    <rect
       style="opacity:1;fill:none;fill-opacity:1;stroke:#000000;stroke-width:4.5;stroke-miterlimit:4;stroke-dasharray:13.49999946, 13.49999946;stroke-dashoffset:0;stroke-opacity:1"
       id="rect976"
       width="435.24405"
       height="435.24396"
       x="198.27092"
       y="3037.7183" />
    <circle
       style="opacity:1;fill:#000000;fill-opacity:1;stroke:#000000;stroke-width:4.57156086;stroke-miterlimit:4;stroke-dasharray:none;stroke-dashoffset:0;stroke-opacity:1"
       id="path979"
       cx="415.89294"
       cy="3255.3403"
       r="10.844617" />
    <flowRoot
       xml:space="preserve"
       id="flowRoot1008"
       style="font-style:normal;font-weight:normal;font-size:2149.33325195px;line-height:1.25;font-family:sans-serif;letter-spacing:0px;word-spacing:0px;fill:#000000;fill-opacity:1;stroke:none"
       transform="matrix(3.1249999,0,0,3.1249999,10.879364,2382.9419)"><flowRegion
         id="flowRegion1010"><rect
           id="rect1012"
           width="31.071428"
           height="32.5"
           x="-37.5"
           y="260.10712" /></flowRegion><flowPara
         id="flowPara1014">1</flowPara><flowPara
         id="flowPara1016" /></flowRoot>    <g
       aria-label="1"
       style="font-style:normal;font-weight:normal;font-size:50px;line-height:1.25;font-family:sans-serif;letter-spacing:0px;word-spacing:0px;fill:#000000;fill-opacity:1;stroke:none;stroke-width:3.125"
       id="text1020"
       transform="matrix(1.4628995,0,0,1.4628995,-155.27653,-1610.3166)">
      <path
         d="m 349.66983,3302.1172 h 8.05664 v -27.8076 l -8.76465,1.7578 v -4.4922 l 8.71582,-1.7578 h 4.93164 v 32.2998 h 8.05664 v 4.1504 h -20.99609 z"
         style="stroke-width:3.125"
         id="path1110" />
    </g>
    <g
       aria-label="2"
       style="font-style:normal;font-weight:normal;font-size:50px;line-height:1.25;font-family:sans-serif;letter-spacing:0px;word-spacing:0px;fill:#000000;fill-opacity:1;stroke:none;stroke-width:3.125"
       id="text1020-6"
       transform="matrix(1.4628995,0,0,1.4628995,-72.060169,-1478.9828)">
      <path
         d="M 148.10208,3435.521 H 165.314 v 4.1504 h -23.14454 v -4.1504 q 2.80762,-2.9053 7.64161,-7.7881 4.85839,-4.9072 6.10351,-6.3232 2.36817,-2.6612 3.2959,-4.4922 0.95215,-1.8555 0.95215,-3.6377 0,-2.9053 -2.05078,-4.7363 -2.02637,-1.8311 -5.29785,-1.8311 -2.31934,0 -4.90723,0.8057 -2.56348,0.8056 -5.49317,2.4414 v -4.9805 q 2.97852,-1.1963 5.56641,-1.8066 2.58789,-0.6104 4.73633,-0.6104 5.66406,0 9.0332,2.832 3.36914,2.8321 3.36914,7.5684 0,2.2461 -0.85449,4.2725 -0.83008,2.0019 -3.05176,4.7363 -0.61035,0.708 -3.88183,4.1016 -3.27149,3.3691 -9.22852,9.4482 z"
         style="stroke-width:3.125"
         id="path1104" />
    </g>
    <g
       aria-label="3"
       style="font-style:normal;font-weight:normal;font-size:50px;line-height:1.25;font-family:sans-serif;letter-spacing:0px;word-spacing:0px;fill:#000000;fill-opacity:1;stroke:none;stroke-width:3.125"
       id="text1020-67"
       transform="matrix(1.4628995,0,0,1.4628995,-65.226037,-1496.2074)">
      <path
         d="m 332.90259,3433.8572 q 3.54004,0.7568 5.51758,3.1494 2.00195,2.3926 2.00195,5.9082 0,5.3955 -3.71094,8.3496 -3.71094,2.9541 -10.54687,2.9541 -2.29493,0 -4.73633,-0.4639 -2.41699,-0.4394 -5.00488,-1.3427 v -4.7608 q 2.05078,1.1963 4.49218,1.8067 2.44141,0.6103 5.10254,0.6103 4.63867,0 7.05567,-1.831 2.4414,-1.8311 2.4414,-5.3223 0,-3.2227 -2.27051,-5.0293 -2.24609,-1.8311 -6.27441,-1.8311 h -4.24805 v -4.0527 h 4.44336 q 3.6377,0 5.56641,-1.4404 1.92871,-1.4649 1.92871,-4.1992 0,-2.8077 -2.00195,-4.2969 -1.97754,-1.5137 -5.68848,-1.5137 -2.02637,0 -4.3457,0.4395 -2.31934,0.4394 -5.10254,1.3672 v -4.3946 q 2.80762,-0.7812 5.24902,-1.1719 2.46582,-0.3906 4.63867,-0.3906 5.61524,0 8.88672,2.5635 3.27149,2.5391 3.27149,6.8848 0,3.0273 -1.7334,5.1269 -1.7334,2.0752 -4.93164,2.8809 z"
         style="stroke-width:3.125"
         id="path1107" />
    </g>
    <g
       aria-label="4"
       style="font-style:normal;font-weight:normal;font-size:50px;line-height:1.25;font-family:sans-serif;letter-spacing:0px;word-spacing:0px;fill:#000000;fill-opacity:1;stroke:none;stroke-width:3.125"
       id="text1020-69"
       transform="matrix(1.4628995,0,0,1.4628995,462.56312,-1769.6367)">
      <path
         d="m 155.61815,3243.2322 -12.45117,19.458 h 12.45117 z m -1.29395,-4.2969 h 6.20118 v 23.7549 h 5.20019 v 4.1015 h -5.20019 v 8.5938 h -4.90723 v -8.5938 h -16.45508 v -4.7607 z"
         style="stroke-width:3.125"
         id="path1101" />
    </g>
    <circle
       style="opacity:1;fill:#000000;fill-opacity:1;stroke:#000000;stroke-width:4.57156086;stroke-miterlimit:4;stroke-dasharray:none;stroke-dashoffset:0;stroke-opacity:1"
       id="path979-7"
       cx="198.71977"
       cy="3472.3701"
       r="10.844617" />
    <circle
       style="opacity:1;fill:#000000;fill-opacity:1;stroke:#000000;stroke-width:4.57156086;stroke-miterlimit:4;stroke-dasharray:none;stroke-dashoffset:0;stroke-opacity:1"
       id="path979-7-2"
       cx="415.89294"
       cy="3474.0027"
       r="10.844617" />
    <circle
       style="opacity:1;fill:#000000;fill-opacity:1;stroke:#000000;stroke-width:4.57156086;stroke-miterlimit:4;stroke-dasharray:none;stroke-dashoffset:0;stroke-opacity:1"
       id="path979-7-2-8"
       cx="198.71979"
       cy="3255.3403"
       r="10.844617" />
    <circle
       style="opacity:1;fill:#000000;fill-opacity:1;stroke:#000000;stroke-width:4.57156086;stroke-miterlimit:4;stroke-dasharray:none;stroke-dashoffset:0;stroke-opacity:1"
       id="path979-5"
       cx="415.89294"
       cy="3038.5994"
       r="10.844618" />
    <circle
       style="opacity:1;fill:#000000;fill-opacity:1;stroke:#000000;stroke-width:4.57156086;stroke-miterlimit:4;stroke-dasharray:none;stroke-dashoffset:0;stroke-opacity:1"
       id="path979-5-7"
       cx="632.57159"
       cy="3255.3403"
       r="10.844618" />
    <circle
       style="opacity:1;fill:#000000;fill-opacity:1;stroke:#000000;stroke-width:4.57156086;stroke-miterlimit:4;stroke-dasharray:none;stroke-dashoffset:0;stroke-opacity:1"
       id="path979-5-2"
       cx="632.57159"
       cy="3038.5994"
       r="10.844618" />
    <circle
       style="opacity:1;fill:#000000;fill-opacity:1;stroke:#000000;stroke-width:4.57156086;stroke-miterlimit:4;stroke-dasharray:none;stroke-dashoffset:0;stroke-opacity:1"
       id="path979-5-2-8"
       cx="632.57159"
       cy="3474.0027"
       r="10.844618" />
    <circle
       style="opacity:1;fill:#000000;fill-opacity:1;stroke:#000000;stroke-width:4.57156086;stroke-miterlimit:4;stroke-dasharray:none;stroke-dashoffset:0;stroke-opacity:1"
       id="path979-7-2-8-2"
       cx="198.71979"
       cy="3038.5994"
       r="10.844618" />
  </g>
</svg>
