<?xml version="1.0" encoding="UTF-8" standalone="no"?><svg xmlns="http://www.w3.org/2000/svg" xmlns:xlink="http://www.w3.org/1999/xlink" contentScriptType="application/ecmascript" contentStyleType="text/css" height="105px" preserveAspectRatio="none" style="width:238px;height:105px;" version="1.1" viewBox="0 0 238 105" width="238px" zoomAndPan="magnify"><defs><filter height="300%" id="f1na4rxgs2kmad" width="300%" x="-1" y="-1"><feGaussianBlur result="blurOut" stdDeviation="2.0"/><feColorMatrix in="blurOut" result="blurOut2" type="matrix" values="0 0 0 0 0 0 0 0 0 0 0 0 0 0 0 0 0 0 .4 0"/><feOffset dx="4.0" dy="4.0" in="blurOut2" result="blurOut3"/><feBlend in="SourceGraphic" in2="blurOut3" mode="normal"/></filter></defs><g><!--class EntityObservers--><rect fill="#FEFECE" filter="url(#f1na4rxgs2kmad)" height="86.4141" id="EntityObservers" style="stroke: #A80036; stroke-width: 1.5;" width="221" x="6" y="8"/><ellipse cx="63.25" cy="24" fill="#FF6AD3" rx="11" ry="11" style="stroke: #A80036; stroke-width: 1.0;"/><path d="M62.7344,24.5625 Q60.875,23.8594 60.2188,23.0938 Q59.5781,22.3125 59.5781,21 Q59.5781,19.3125 60.6563,18.3438 Q61.7344,17.375 63.6094,17.375 Q64.4688,17.375 65.3125,17.5781 Q66.1719,17.7656 67.0156,18.1563 L67.0156,20.5469 Q66.2344,19.9844 65.4063,19.7031 Q64.5938,19.4063 63.7969,19.4063 Q62.9219,19.4063 62.4375,19.7656 Q61.9688,20.125 61.9688,20.7813 Q61.9688,21.2969 62.3125,21.6406 Q62.6563,21.9688 63.75,22.375 L64.8125,22.7813 Q66.2969,23.3281 67,24.2344 Q67.7188,25.1406 67.7188,26.5156 Q67.7188,28.3906 66.6094,29.3125 Q65.5,30.2344 63.25,30.2344 Q62.3281,30.2344 61.4063,30.0156 Q60.4844,29.7969 59.625,29.375 L59.625,26.8438 Q60.5938,27.5313 61.5156,27.875 Q62.4375,28.2188 63.3281,28.2188 Q64.2344,28.2188 64.7344,27.8125 Q65.2344,27.3906 65.2344,26.6563 Q65.2344,26.0938 64.8906,25.6875 Q64.5625,25.2656 63.9375,25.0156 L62.7344,24.5625 Z "/><text fill="#000000" font-family="sans-serif" font-size="12" lengthAdjust="spacingAndGlyphs" textLength="98" x="83.75" y="28.1543">EntityObservers</text><line style="stroke: #A80036; stroke-width: 1.5;" x1="7" x2="226" y1="40" y2="40"/><rect fill="none" height="6" style="stroke: #C82930; stroke-width: 1.0;" width="6" x="14" y="48.9023"/><text fill="#000000" font-family="sans-serif" font-size="11" lengthAdjust="spacingAndGlyphs" textLength="157" x="26" y="54.2104">observers: Map&lt;entity, fn&gt;</text><line style="stroke: #A80036; stroke-width: 1.5;" x1="7" x2="226" y1="60.8047" y2="60.8047"/><ellipse cx="17" cy="72.707" fill="#84BE84" rx="3" ry="3" style="stroke: #038048; stroke-width: 1.0;"/><text fill="#000000" font-family="sans-serif" font-size="11" lengthAdjust="spacingAndGlyphs" textLength="195" x="26" y="75.0151">add_observer(entity, observer: fn)</text><ellipse cx="17" cy="85.5117" fill="#84BE84" rx="3" ry="3" style="stroke: #038048; stroke-width: 1.0;"/><text fill="#000000" font-family="sans-serif" font-size="11" lengthAdjust="spacingAndGlyphs" textLength="177" x="26" y="87.8198">observer(entity) -&gt; Option&lt;fn&gt;</text><!--
@startuml



hide empty members

class EntityObservers << (S,#ff6ad3) >> {
    - observers: Map<entity, fn>
    + add_observer(entity, observer: fn)
    + observer(entity) -> Option<fn>
}

@enduml

PlantUML version 1.2018.13(Mon Nov 26 09:11:51 PST 2018)
(GPL source distribution)
Java Runtime: OpenJDK Runtime Environment
JVM: OpenJDK 64-Bit Server VM
Java Version: 11.0.7+10-post-Debian-3deb10u1
Operating System: Linux
OS Version: 4.19.0-9-amd64
Default Encoding: UTF-8
Language: en
Country: US
--></g></svg>