<?xml version="1.0" encoding="UTF-8" standalone="no"?><svg xmlns="http://www.w3.org/2000/svg" xmlns:xlink="http://www.w3.org/1999/xlink" contentScriptType="application/ecmascript" contentStyleType="text/css" height="118px" preserveAspectRatio="none" style="width:152px;height:118px;" version="1.1" viewBox="0 0 152 118" width="152px" zoomAndPan="magnify"><defs><filter height="300%" id="fnq1tn33flz4c" width="300%" x="-1" y="-1"><feGaussianBlur result="blurOut" stdDeviation="2.0"/><feColorMatrix in="blurOut" result="blurOut2" type="matrix" values="0 0 0 0 0 0 0 0 0 0 0 0 0 0 0 0 0 0 .4 0"/><feOffset dx="4.0" dy="4.0" in="blurOut2" result="blurOut3"/><feBlend in="SourceGraphic" in2="blurOut3" mode="normal"/></filter></defs><g><!--class ScreenPoint--><rect fill="#FEFECE" filter="url(#fnq1tn33flz4c)" height="99.2188" id="ScreenPoint" style="stroke: #A80036; stroke-width: 1.5;" width="135" x="6" y="8"/><ellipse cx="33.15" cy="24" fill="#FF6AD3" rx="11" ry="11" style="stroke: #A80036; stroke-width: 1.0;"/><path d="M32.6344,24.5625 Q30.775,23.8594 30.1188,23.0938 Q29.4781,22.3125 29.4781,21 Q29.4781,19.3125 30.5563,18.3438 Q31.6344,17.375 33.5094,17.375 Q34.3688,17.375 35.2125,17.5781 Q36.0719,17.7656 36.9156,18.1563 L36.9156,20.5469 Q36.1344,19.9844 35.3063,19.7031 Q34.4938,19.4063 33.6969,19.4063 Q32.8219,19.4063 32.3375,19.7656 Q31.8688,20.125 31.8688,20.7813 Q31.8688,21.2969 32.2125,21.6406 Q32.5563,21.9688 33.65,22.375 L34.7125,22.7813 Q36.1969,23.3281 36.9,24.2344 Q37.6188,25.1406 37.6188,26.5156 Q37.6188,28.3906 36.5094,29.3125 Q35.4,30.2344 33.15,30.2344 Q32.2281,30.2344 31.3063,30.0156 Q30.3844,29.7969 29.525,29.375 L29.525,26.8438 Q30.4938,27.5313 31.4156,27.875 Q32.3375,28.2188 33.2281,28.2188 Q34.1344,28.2188 34.6344,27.8125 Q35.1344,27.3906 35.1344,26.6563 Q35.1344,26.0938 34.7906,25.6875 Q34.4625,25.2656 33.8375,25.0156 L32.6344,24.5625 Z "/><text fill="#000000" font-family="sans-serif" font-size="12" lengthAdjust="spacingAndGlyphs" textLength="76" x="49.85" y="28.1543">ScreenPoint</text><line style="stroke: #A80036; stroke-width: 1.5;" x1="7" x2="140" y1="40" y2="40"/><ellipse cx="17" cy="51.9023" fill="none" rx="3" ry="3" style="stroke: #038048; stroke-width: 1.0;"/><text fill="#000000" font-family="sans-serif" font-size="11" lengthAdjust="spacingAndGlyphs" textLength="32" x="26" y="54.2104">x: f32</text><ellipse cx="17" cy="64.707" fill="none" rx="3" ry="3" style="stroke: #038048; stroke-width: 1.0;"/><text fill="#000000" font-family="sans-serif" font-size="11" lengthAdjust="spacingAndGlyphs" textLength="32" x="26" y="67.0151">y: f32</text><line style="stroke: #A80036; stroke-width: 1.5;" x1="7" x2="140" y1="73.6094" y2="73.6094"/><ellipse cx="17" cy="85.5117" fill="#84BE84" rx="3" ry="3" style="stroke: #038048; stroke-width: 1.0;"/><text fill="#000000" font-family="sans-serif" font-size="11" lengthAdjust="spacingAndGlyphs" textLength="87" x="26" y="87.8198">from((f32, f32))</text><ellipse cx="17" cy="98.3164" fill="#84BE84" rx="3" ry="3" style="stroke: #038048; stroke-width: 1.0;"/><text fill="#000000" font-family="sans-serif" font-size="11" lengthAdjust="spacingAndGlyphs" textLength="109" x="26" y="100.6245">to_point() -&gt; Point2</text><!--
@startuml



hide empty members

class ScreenPoint << (S,#ff6ad3) >> {
    + x: f32
    + y: f32
    + from((f32, f32))
    + to_point() -> Point2
}

@enduml

PlantUML version 1.2018.13(Mon Nov 26 09:11:51 PST 2018)
(GPL source distribution)
Java Runtime: OpenJDK Runtime Environment
JVM: OpenJDK 64-Bit Server VM
Java Version: 11.0.7+10-post-Debian-3deb10u1
Operating System: Linux
OS Version: 4.19.0-9-amd64
Default Encoding: UTF-8
Language: en
Country: US
--></g></svg>