<?xml version="1.0" encoding="UTF-8" standalone="no"?><svg xmlns="http://www.w3.org/2000/svg" xmlns:xlink="http://www.w3.org/1999/xlink" contentScriptType="application/ecmascript" contentStyleType="text/css" height="312px" preserveAspectRatio="none" style="width:461px;height:312px;" version="1.1" viewBox="0 0 461 312" width="461px" zoomAndPan="magnify"><defs><filter height="300%" id="f1309p9gi5yk0c" width="300%" x="-1" y="-1"><feGaussianBlur result="blurOut" stdDeviation="2.0"/><feColorMatrix in="blurOut" result="blurOut2" type="matrix" values="0 0 0 0 0 0 0 0 0 0 0 0 0 0 0 0 0 0 .4 0"/><feOffset dx="4.0" dy="4.0" in="blurOut2" result="blurOut3"/><feBlend in="SourceGraphic" in2="blurOut3" mode="normal"/></filter></defs><g><!--class UiStyle--><rect fill="#FEFECE" filter="url(#f1309p9gi5yk0c)" height="104.0234" id="UiStyle" style="stroke: #A80036; stroke-width: 1.5;" width="131" x="6" y="33.5"/><ellipse cx="46.65" cy="49.5" fill="#FF6AD3" rx="11" ry="11" style="stroke: #A80036; stroke-width: 1.0;"/><path d="M46.1344,50.0625 Q44.275,49.3594 43.6188,48.5938 Q42.9781,47.8125 42.9781,46.5 Q42.9781,44.8125 44.0563,43.8438 Q45.1344,42.875 47.0094,42.875 Q47.8688,42.875 48.7125,43.0781 Q49.5719,43.2656 50.4156,43.6563 L50.4156,46.0469 Q49.6344,45.4844 48.8063,45.2031 Q47.9938,44.9063 47.1969,44.9063 Q46.3219,44.9063 45.8375,45.2656 Q45.3688,45.625 45.3688,46.2813 Q45.3688,46.7969 45.7125,47.1406 Q46.0563,47.4688 47.15,47.875 L48.2125,48.2813 Q49.6969,48.8281 50.4,49.7344 Q51.1188,50.6406 51.1188,52.0156 Q51.1188,53.8906 50.0094,54.8125 Q48.9,55.7344 46.65,55.7344 Q45.7281,55.7344 44.8063,55.5156 Q43.8844,55.2969 43.025,54.875 L43.025,52.3438 Q43.9938,53.0313 44.9156,53.375 Q45.8375,53.7188 46.7281,53.7188 Q47.6344,53.7188 48.1344,53.3125 Q48.6344,52.8906 48.6344,52.1563 Q48.6344,51.5938 48.2906,51.1875 Q47.9625,50.7656 47.3375,50.5156 L46.1344,50.0625 Z "/><text fill="#000000" font-family="sans-serif" font-size="12" lengthAdjust="spacingAndGlyphs" textLength="42" x="66.35" y="53.6543">UiStyle</text><line style="stroke: #A80036; stroke-width: 1.5;" x1="7" x2="136" y1="65.5" y2="65.5"/><ellipse cx="17" cy="77.4023" fill="none" rx="3" ry="3" style="stroke: #038048; stroke-width: 1.0;"/><text fill="#000000" font-family="sans-serif" font-size="11" lengthAdjust="spacingAndGlyphs" textLength="32" x="26" y="79.7104">menu</text><ellipse cx="17" cy="90.207" fill="none" rx="3" ry="3" style="stroke: #038048; stroke-width: 1.0;"/><text fill="#000000" font-family="sans-serif" font-size="11" lengthAdjust="spacingAndGlyphs" textLength="21" x="26" y="92.5151">title</text><ellipse cx="17" cy="103.0117" fill="none" rx="3" ry="3" style="stroke: #038048; stroke-width: 1.0;"/><text fill="#000000" font-family="sans-serif" font-size="11" lengthAdjust="spacingAndGlyphs" textLength="36" x="26" y="105.3198">button</text><ellipse cx="17" cy="115.8164" fill="none" rx="3" ry="3" style="stroke: #038048; stroke-width: 1.0;"/><text fill="#000000" font-family="sans-serif" font-size="11" lengthAdjust="spacingAndGlyphs" textLength="105" x="26" y="118.1245">hamburger_button</text><ellipse cx="17" cy="128.6211" fill="none" rx="3" ry="3" style="stroke: #038048; stroke-width: 1.0;"/><text fill="#000000" font-family="sans-serif" font-size="11" lengthAdjust="spacingAndGlyphs" textLength="74" x="26" y="130.9292">game_status</text><!--class MenuStyle--><rect fill="#FEFECE" filter="url(#f1309p9gi5yk0c)" height="52.8047" id="MenuStyle" style="stroke: #A80036; stroke-width: 1.5;" width="119" x="172" y="59"/><ellipse cx="197.35" cy="75" fill="#FF6AD3" rx="11" ry="11" style="stroke: #A80036; stroke-width: 1.0;"/><path d="M196.8344,75.5625 Q194.975,74.8594 194.3188,74.0938 Q193.6781,73.3125 193.6781,72 Q193.6781,70.3125 194.7563,69.3438 Q195.8344,68.375 197.7094,68.375 Q198.5688,68.375 199.4125,68.5781 Q200.2719,68.7656 201.1156,69.1563 L201.1156,71.5469 Q200.3344,70.9844 199.5063,70.7031 Q198.6938,70.4063 197.8969,70.4063 Q197.0219,70.4063 196.5375,70.7656 Q196.0688,71.125 196.0688,71.7813 Q196.0688,72.2969 196.4125,72.6406 Q196.7563,72.9688 197.85,73.375 L198.9125,73.7813 Q200.3969,74.3281 201.1,75.2344 Q201.8188,76.1406 201.8188,77.5156 Q201.8188,79.3906 200.7094,80.3125 Q199.6,81.2344 197.35,81.2344 Q196.4281,81.2344 195.5063,81.0156 Q194.5844,80.7969 193.725,80.375 L193.725,77.8438 Q194.6938,78.5313 195.6156,78.875 Q196.5375,79.2188 197.4281,79.2188 Q198.3344,79.2188 198.8344,78.8125 Q199.3344,78.3906 199.3344,77.6563 Q199.3344,77.0938 198.9906,76.6875 Q198.6625,76.2656 198.0375,76.0156 L196.8344,75.5625 Z "/><text fill="#000000" font-family="sans-serif" font-size="12" lengthAdjust="spacingAndGlyphs" textLength="64" x="213.65" y="79.1543">MenuStyle</text><line style="stroke: #A80036; stroke-width: 1.5;" x1="173" x2="290" y1="91" y2="91"/><text fill="#000000" font-family="sans-serif" font-size="11" lengthAdjust="spacingAndGlyphs" textLength="107" x="178" y="105.2104">background_image</text><!--class ButtonStyle--><rect fill="#FEFECE" filter="url(#f1309p9gi5yk0c)" height="155.2422" id="ButtonStyle" style="stroke: #A80036; stroke-width: 1.5;" width="124" x="326.5" y="8"/><ellipse cx="350.5" cy="24" fill="#FF6AD3" rx="11" ry="11" style="stroke: #A80036; stroke-width: 1.0;"/><path d="M349.9844,24.5625 Q348.125,23.8594 347.4688,23.0938 Q346.8281,22.3125 346.8281,21 Q346.8281,19.3125 347.9063,18.3438 Q348.9844,17.375 350.8594,17.375 Q351.7188,17.375 352.5625,17.5781 Q353.4219,17.7656 354.2656,18.1563 L354.2656,20.5469 Q353.4844,19.9844 352.6563,19.7031 Q351.8438,19.4063 351.0469,19.4063 Q350.1719,19.4063 349.6875,19.7656 Q349.2188,20.125 349.2188,20.7813 Q349.2188,21.2969 349.5625,21.6406 Q349.9063,21.9688 351,22.375 L352.0625,22.7813 Q353.5469,23.3281 354.25,24.2344 Q354.9688,25.1406 354.9688,26.5156 Q354.9688,28.3906 353.8594,29.3125 Q352.75,30.2344 350.5,30.2344 Q349.5781,30.2344 348.6563,30.0156 Q347.7344,29.7969 346.875,29.375 L346.875,26.8438 Q347.8438,27.5313 348.7656,27.875 Q349.6875,28.2188 350.5781,28.2188 Q351.4844,28.2188 351.9844,27.8125 Q352.4844,27.3906 352.4844,26.6563 Q352.4844,26.0938 352.1406,25.6875 Q351.8125,25.2656 351.1875,25.0156 L349.9844,24.5625 Z "/><text fill="#000000" font-family="sans-serif" font-size="12" lengthAdjust="spacingAndGlyphs" textLength="72" x="366.5" y="28.1543">ButtonStyle</text><line style="stroke: #A80036; stroke-width: 1.5;" x1="327.5" x2="449.5" y1="40" y2="40"/><ellipse cx="337.5" cy="51.9023" fill="none" rx="3" ry="3" style="stroke: #038048; stroke-width: 1.0;"/><text fill="#000000" font-family="sans-serif" font-size="11" lengthAdjust="spacingAndGlyphs" textLength="54" x="346.5" y="54.2104">text_style</text><ellipse cx="337.5" cy="64.707" fill="none" rx="3" ry="3" style="stroke: #038048; stroke-width: 1.0;"/><text fill="#000000" font-family="sans-serif" font-size="11" lengthAdjust="spacingAndGlyphs" textLength="30" x="346.5" y="67.0151">width</text><ellipse cx="337.5" cy="77.5117" fill="none" rx="3" ry="3" style="stroke: #038048; stroke-width: 1.0;"/><text fill="#000000" font-family="sans-serif" font-size="11" lengthAdjust="spacingAndGlyphs" textLength="35" x="346.5" y="79.8198">height</text><ellipse cx="337.5" cy="90.3164" fill="none" rx="3" ry="3" style="stroke: #038048; stroke-width: 1.0;"/><text fill="#000000" font-family="sans-serif" font-size="11" lengthAdjust="spacingAndGlyphs" textLength="40" x="346.5" y="92.6245">margin</text><ellipse cx="337.5" cy="103.1211" fill="none" rx="3" ry="3" style="stroke: #038048; stroke-width: 1.0;"/><text fill="#000000" font-family="sans-serif" font-size="11" lengthAdjust="spacingAndGlyphs" textLength="98" x="346.5" y="105.4292">border_thickness</text><ellipse cx="337.5" cy="115.9258" fill="none" rx="3" ry="3" style="stroke: #038048; stroke-width: 1.0;"/><text fill="#000000" font-family="sans-serif" font-size="11" lengthAdjust="spacingAndGlyphs" textLength="72" x="346.5" y="118.2339">border_color</text><ellipse cx="337.5" cy="128.7305" fill="none" rx="3" ry="3" style="stroke: #038048; stroke-width: 1.0;"/><text fill="#000000" font-family="sans-serif" font-size="11" lengthAdjust="spacingAndGlyphs" textLength="28" x="346.5" y="131.0386">color</text><ellipse cx="337.5" cy="141.5352" fill="none" rx="3" ry="3" style="stroke: #038048; stroke-width: 1.0;"/><text fill="#000000" font-family="sans-serif" font-size="11" lengthAdjust="spacingAndGlyphs" textLength="66" x="346.5" y="143.8433">hover_color</text><ellipse cx="337.5" cy="154.3398" fill="none" rx="3" ry="3" style="stroke: #038048; stroke-width: 1.0;"/><text fill="#000000" font-family="sans-serif" font-size="11" lengthAdjust="spacingAndGlyphs" textLength="67" x="346.5" y="156.6479">press_color</text><!--class TextStyle--><rect fill="#FEFECE" filter="url(#f1309p9gi5yk0c)" height="78.4141" id="TextStyle" style="stroke: #A80036; stroke-width: 1.5;" width="88" x="27.5" y="223"/><ellipse cx="42.5" cy="239" fill="#FF6AD3" rx="11" ry="11" style="stroke: #A80036; stroke-width: 1.0;"/><path d="M41.9844,239.5625 Q40.125,238.8594 39.4688,238.0938 Q38.8281,237.3125 38.8281,236 Q38.8281,234.3125 39.9063,233.3438 Q40.9844,232.375 42.8594,232.375 Q43.7188,232.375 44.5625,232.5781 Q45.4219,232.7656 46.2656,233.1563 L46.2656,235.5469 Q45.4844,234.9844 44.6563,234.7031 Q43.8438,234.4063 43.0469,234.4063 Q42.1719,234.4063 41.6875,234.7656 Q41.2188,235.125 41.2188,235.7813 Q41.2188,236.2969 41.5625,236.6406 Q41.9063,236.9688 43,237.375 L44.0625,237.7813 Q45.5469,238.3281 46.25,239.2344 Q46.9688,240.1406 46.9688,241.5156 Q46.9688,243.3906 45.8594,244.3125 Q44.75,245.2344 42.5,245.2344 Q41.5781,245.2344 40.6563,245.0156 Q39.7344,244.7969 38.875,244.375 L38.875,241.8438 Q39.8438,242.5313 40.7656,242.875 Q41.6875,243.2188 42.5781,243.2188 Q43.4844,243.2188 43.9844,242.8125 Q44.4844,242.3906 44.4844,241.6563 Q44.4844,241.0938 44.1406,240.6875 Q43.8125,240.2656 43.1875,240.0156 L41.9844,239.5625 Z "/><text fill="#000000" font-family="sans-serif" font-size="12" lengthAdjust="spacingAndGlyphs" textLength="56" x="56.5" y="243.1543">TextStyle</text><line style="stroke: #A80036; stroke-width: 1.5;" x1="28.5" x2="114.5" y1="255" y2="255"/><ellipse cx="38.5" cy="266.9023" fill="none" rx="3" ry="3" style="stroke: #038048; stroke-width: 1.0;"/><text fill="#000000" font-family="sans-serif" font-size="11" lengthAdjust="spacingAndGlyphs" textLength="22" x="47.5" y="269.2104">font</text><ellipse cx="38.5" cy="279.707" fill="none" rx="3" ry="3" style="stroke: #038048; stroke-width: 1.0;"/><text fill="#000000" font-family="sans-serif" font-size="11" lengthAdjust="spacingAndGlyphs" textLength="50" x="47.5" y="282.0151">font_size</text><ellipse cx="38.5" cy="292.5117" fill="none" rx="3" ry="3" style="stroke: #038048; stroke-width: 1.0;"/><text fill="#000000" font-family="sans-serif" font-size="11" lengthAdjust="spacingAndGlyphs" textLength="28" x="47.5" y="294.8198">color</text><!--class HamburgerButtonStyle--><rect fill="#FEFECE" filter="url(#f1309p9gi5yk0c)" height="65.6094" id="HamburgerButtonStyle" style="stroke: #A80036; stroke-width: 1.5;" width="174" x="150.5" y="229"/><ellipse cx="165.5" cy="245" fill="#FF6AD3" rx="11" ry="11" style="stroke: #A80036; stroke-width: 1.0;"/><path d="M164.9844,245.5625 Q163.125,244.8594 162.4688,244.0938 Q161.8281,243.3125 161.8281,242 Q161.8281,240.3125 162.9063,239.3438 Q163.9844,238.375 165.8594,238.375 Q166.7188,238.375 167.5625,238.5781 Q168.4219,238.7656 169.2656,239.1563 L169.2656,241.5469 Q168.4844,240.9844 167.6563,240.7031 Q166.8438,240.4063 166.0469,240.4063 Q165.1719,240.4063 164.6875,240.7656 Q164.2188,241.125 164.2188,241.7813 Q164.2188,242.2969 164.5625,242.6406 Q164.9063,242.9688 166,243.375 L167.0625,243.7813 Q168.5469,244.3281 169.25,245.2344 Q169.9688,246.1406 169.9688,247.5156 Q169.9688,249.3906 168.8594,250.3125 Q167.75,251.2344 165.5,251.2344 Q164.5781,251.2344 163.6563,251.0156 Q162.7344,250.7969 161.875,250.375 L161.875,247.8438 Q162.8438,248.5313 163.7656,248.875 Q164.6875,249.2188 165.5781,249.2188 Q166.4844,249.2188 166.9844,248.8125 Q167.4844,248.3906 167.4844,247.6563 Q167.4844,247.0938 167.1406,246.6875 Q166.8125,246.2656 166.1875,246.0156 L164.9844,245.5625 Z "/><text fill="#000000" font-family="sans-serif" font-size="12" lengthAdjust="spacingAndGlyphs" textLength="142" x="179.5" y="249.1543">HamburgerButtonStyle</text><line style="stroke: #A80036; stroke-width: 1.5;" x1="151.5" x2="323.5" y1="261" y2="261"/><ellipse cx="161.5" cy="272.9023" fill="none" rx="3" ry="3" style="stroke: #038048; stroke-width: 1.0;"/><text fill="#000000" font-family="sans-serif" font-size="11" lengthAdjust="spacingAndGlyphs" textLength="23" x="170.5" y="275.2104">icon</text><ellipse cx="161.5" cy="285.707" fill="none" rx="3" ry="3" style="stroke: #038048; stroke-width: 1.0;"/><text fill="#000000" font-family="sans-serif" font-size="11" lengthAdjust="spacingAndGlyphs" textLength="22" x="170.5" y="288.0151">size</text><!--link UiStyle to MenuStyle--><!--link MenuStyle to ButtonStyle--><!--link UiStyle to TextStyle--><!--link TextStyle to HamburgerButtonStyle--><!--
@startuml



hide empty members

class UiStyle << (S,#ff6ad3) >> {
    + menu
    + title
    + button
    + hamburger_button
    + game_status
}

class MenuStyle << (S,#ff6ad3) >> {
    background_image
}

class ButtonStyle << (S,#ff6ad3) >> {
    + text_style
    + width
    + height
    + margin
    + border_thickness
    + border_color
    + color
    + hover_color
    + press_color
}

class TextStyle << (S,#ff6ad3) >> {
    + font
    + font_size
    + color
}

class HamburgerButtonStyle << (S,#ff6ad3) >> {
    + icon
    + size
}

@enduml

PlantUML version 1.2018.13(Mon Nov 26 09:11:51 PST 2018)
(GPL source distribution)
Java Runtime: OpenJDK Runtime Environment
JVM: OpenJDK 64-Bit Server VM
Java Version: 11.0.7+10-post-Debian-3deb10u1
Operating System: Linux
OS Version: 4.19.0-9-amd64
Default Encoding: UTF-8
Language: en
Country: US
--></g></svg>