<?xml version="1.0" encoding="UTF-8" standalone="no"?><svg xmlns="http://www.w3.org/2000/svg" xmlns:xlink="http://www.w3.org/1999/xlink" contentScriptType="application/ecmascript" contentStyleType="text/css" height="199px" preserveAspectRatio="none" style="width:320px;height:199px;" version="1.1" viewBox="0 0 320 199" width="320px" zoomAndPan="magnify"><defs><filter height="300%" id="f1j3xq0nn2np6x" width="300%" x="-1" y="-1"><feGaussianBlur result="blurOut" stdDeviation="2.0"/><feColorMatrix in="blurOut" result="blurOut2" type="matrix" values="0 0 0 0 0 0 0 0 0 0 0 0 0 0 0 0 0 0 .4 0"/><feOffset dx="4.0" dy="4.0" in="blurOut2" result="blurOut3"/><feBlend in="SourceGraphic" in2="blurOut3" mode="normal"/></filter></defs><g><!--class Line--><rect fill="#FEFECE" filter="url(#f1j3xq0nn2np6x)" height="65.6094" id="Line" style="stroke: #A80036; stroke-width: 1.5;" width="96" x="6" y="65.5"/><ellipse cx="38.55" cy="81.5" fill="#FF6AD3" rx="11" ry="11" style="stroke: #A80036; stroke-width: 1.0;"/><path d="M38.0344,82.0625 Q36.175,81.3594 35.5188,80.5938 Q34.8781,79.8125 34.8781,78.5 Q34.8781,76.8125 35.9563,75.8438 Q37.0344,74.875 38.9094,74.875 Q39.7688,74.875 40.6125,75.0781 Q41.4719,75.2656 42.3156,75.6563 L42.3156,78.0469 Q41.5344,77.4844 40.7063,77.2031 Q39.8938,76.9063 39.0969,76.9063 Q38.2219,76.9063 37.7375,77.2656 Q37.2688,77.625 37.2688,78.2813 Q37.2688,78.7969 37.6125,79.1406 Q37.9563,79.4688 39.05,79.875 L40.1125,80.2813 Q41.5969,80.8281 42.3,81.7344 Q43.0188,82.6406 43.0188,84.0156 Q43.0188,85.8906 41.9094,86.8125 Q40.8,87.7344 38.55,87.7344 Q37.6281,87.7344 36.7063,87.5156 Q35.7844,87.2969 34.925,86.875 L34.925,84.3438 Q35.8938,85.0313 36.8156,85.375 Q37.7375,85.7188 38.6281,85.7188 Q39.5344,85.7188 40.0344,85.3125 Q40.5344,84.8906 40.5344,84.1563 Q40.5344,83.5938 40.1906,83.1875 Q39.8625,82.7656 39.2375,82.5156 L38.0344,82.0625 Z "/><text fill="#000000" font-family="sans-serif" font-size="12" lengthAdjust="spacingAndGlyphs" textLength="25" x="56.45" y="85.6543">Line</text><line style="stroke: #A80036; stroke-width: 1.5;" x1="7" x2="101" y1="97.5" y2="97.5"/><ellipse cx="17" cy="109.4023" fill="none" rx="3" ry="3" style="stroke: #038048; stroke-width: 1.0;"/><text fill="#000000" font-family="sans-serif" font-size="11" lengthAdjust="spacingAndGlyphs" textLength="70" x="26" y="111.7104">start: Point3</text><ellipse cx="17" cy="122.207" fill="none" rx="3" ry="3" style="stroke: #038048; stroke-width: 1.0;"/><text fill="#000000" font-family="sans-serif" font-size="11" lengthAdjust="spacingAndGlyphs" textLength="64" x="26" y="124.5151">end: Point3</text><!--class Square--><rect fill="#FEFECE" filter="url(#f1j3xq0nn2np6x)" height="180.8516" id="Square" style="stroke: #A80036; stroke-width: 1.5;" width="172" x="137" y="8"/><ellipse cx="196.25" cy="24" fill="#FF6AD3" rx="11" ry="11" style="stroke: #A80036; stroke-width: 1.0;"/><path d="M195.7344,24.5625 Q193.875,23.8594 193.2188,23.0938 Q192.5781,22.3125 192.5781,21 Q192.5781,19.3125 193.6563,18.3438 Q194.7344,17.375 196.6094,17.375 Q197.4688,17.375 198.3125,17.5781 Q199.1719,17.7656 200.0156,18.1563 L200.0156,20.5469 Q199.2344,19.9844 198.4063,19.7031 Q197.5938,19.4063 196.7969,19.4063 Q195.9219,19.4063 195.4375,19.7656 Q194.9688,20.125 194.9688,20.7813 Q194.9688,21.2969 195.3125,21.6406 Q195.6563,21.9688 196.75,22.375 L197.8125,22.7813 Q199.2969,23.3281 200,24.2344 Q200.7188,25.1406 200.7188,26.5156 Q200.7188,28.3906 199.6094,29.3125 Q198.5,30.2344 196.25,30.2344 Q195.3281,30.2344 194.4063,30.0156 Q193.4844,29.7969 192.625,29.375 L192.625,26.8438 Q193.5938,27.5313 194.5156,27.875 Q195.4375,28.2188 196.3281,28.2188 Q197.2344,28.2188 197.7344,27.8125 Q198.2344,27.3906 198.2344,26.6563 Q198.2344,26.0938 197.8906,25.6875 Q197.5625,25.2656 196.9375,25.0156 L195.7344,24.5625 Z "/><text fill="#000000" font-family="sans-serif" font-size="12" lengthAdjust="spacingAndGlyphs" textLength="45" x="216.75" y="28.1543">Square</text><line style="stroke: #A80036; stroke-width: 1.5;" x1="138" x2="308" y1="40" y2="40"/><ellipse cx="148" cy="51.9023" fill="#84BE84" rx="3" ry="3" style="stroke: #038048; stroke-width: 1.0;"/><text fill="#000000" font-family="sans-serif" font-size="11" lengthAdjust="spacingAndGlyphs" textLength="97" x="157" y="54.2104">new(center, size)</text><ellipse cx="148" cy="64.707" fill="#84BE84" rx="3" ry="3" style="stroke: #038048; stroke-width: 1.0;"/><text fill="#000000" font-family="sans-serif" font-size="11" lengthAdjust="spacingAndGlyphs" textLength="69" x="157" y="67.0151">size() -&gt; f32</text><ellipse cx="148" cy="77.5117" fill="#84BE84" rx="3" ry="3" style="stroke: #038048; stroke-width: 1.0;"/><text fill="#000000" font-family="sans-serif" font-size="11" lengthAdjust="spacingAndGlyphs" textLength="100" x="157" y="79.8198">center() -&gt; Point3</text><ellipse cx="148" cy="90.3164" fill="#84BE84" rx="3" ry="3" style="stroke: #038048; stroke-width: 1.0;"/><text fill="#000000" font-family="sans-serif" font-size="11" lengthAdjust="spacingAndGlyphs" textLength="106" x="157" y="92.6245">top_left() -&gt; Point3</text><ellipse cx="148" cy="103.1211" fill="#84BE84" rx="3" ry="3" style="stroke: #038048; stroke-width: 1.0;"/><text fill="#000000" font-family="sans-serif" font-size="11" lengthAdjust="spacingAndGlyphs" textLength="114" x="157" y="105.4292">top_right() -&gt; Point3</text><ellipse cx="148" cy="115.9258" fill="#84BE84" rx="3" ry="3" style="stroke: #038048; stroke-width: 1.0;"/><text fill="#000000" font-family="sans-serif" font-size="11" lengthAdjust="spacingAndGlyphs" textLength="128" x="157" y="118.2339">bottom_left() -&gt; Point3</text><ellipse cx="148" cy="128.7305" fill="#84BE84" rx="3" ry="3" style="stroke: #038048; stroke-width: 1.0;"/><text fill="#000000" font-family="sans-serif" font-size="11" lengthAdjust="spacingAndGlyphs" textLength="136" x="157" y="131.0386">bottom_right() -&gt; Point3</text><ellipse cx="148" cy="141.5352" fill="#84BE84" rx="3" ry="3" style="stroke: #038048; stroke-width: 1.0;"/><text fill="#000000" font-family="sans-serif" font-size="11" lengthAdjust="spacingAndGlyphs" textLength="124" x="157" y="143.8433">top_center() -&gt; Point3</text><ellipse cx="148" cy="154.3398" fill="#84BE84" rx="3" ry="3" style="stroke: #038048; stroke-width: 1.0;"/><text fill="#000000" font-family="sans-serif" font-size="11" lengthAdjust="spacingAndGlyphs" textLength="146" x="157" y="156.6479">bottom_center() -&gt; Point3</text><ellipse cx="148" cy="167.1445" fill="#84BE84" rx="3" ry="3" style="stroke: #038048; stroke-width: 1.0;"/><text fill="#000000" font-family="sans-serif" font-size="11" lengthAdjust="spacingAndGlyphs" textLength="124" x="157" y="169.4526">center_left() -&gt; Point3</text><ellipse cx="148" cy="179.9492" fill="#84BE84" rx="3" ry="3" style="stroke: #038048; stroke-width: 1.0;"/><text fill="#000000" font-family="sans-serif" font-size="11" lengthAdjust="spacingAndGlyphs" textLength="132" x="157" y="182.2573">center_right() -&gt; Point3</text><!--
@startuml



hide empty members

class Line << (S,#ff6ad3) >> {
    + start: Point3
    + end: Point3
}

class Square << (S,#ff6ad3) >> {
    + new(center, size)
    + size() -> f32
    + center() -> Point3
    + top_left() -> Point3
    + top_right() -> Point3
    + bottom_left() -> Point3
    + bottom_right() -> Point3
    + top_center() -> Point3
    + bottom_center() -> Point3
    + center_left() -> Point3
    + center_right() -> Point3
}

@enduml

PlantUML version 1.2018.13(Mon Nov 26 09:11:51 PST 2018)
(GPL source distribution)
Java Runtime: OpenJDK Runtime Environment
JVM: OpenJDK 64-Bit Server VM
Java Version: 11.0.7+10-post-Debian-3deb10u1
Operating System: Linux
OS Version: 4.19.0-9-amd64
Default Encoding: UTF-8
Language: en
Country: US
--></g></svg>