<?xml version="1.0" encoding="UTF-8" standalone="no"?><svg xmlns="http://www.w3.org/2000/svg" xmlns:xlink="http://www.w3.org/1999/xlink" contentScriptType="application/ecmascript" contentStyleType="text/css" height="105px" preserveAspectRatio="none" style="width:226px;height:105px;" version="1.1" viewBox="0 0 226 105" width="226px" zoomAndPan="magnify"><defs><filter height="300%" id="fuwig1n8agvut" width="300%" x="-1" y="-1"><feGaussianBlur result="blurOut" stdDeviation="2.0"/><feColorMatrix in="blurOut" result="blurOut2" type="matrix" values="0 0 0 0 0 0 0 0 0 0 0 0 0 0 0 0 0 0 .4 0"/><feOffset dx="4.0" dy="4.0" in="blurOut2" result="blurOut3"/><feBlend in="SourceGraphic" in2="blurOut3" mode="normal"/></filter></defs><g><!--class GameLogic--><rect fill="#FEFECE" filter="url(#fuwig1n8agvut)" height="86.4141" id="GameLogic" style="stroke: #A80036; stroke-width: 1.5;" width="209" x="6" y="8"/><ellipse cx="72.25" cy="24" fill="#FF6AD3" rx="11" ry="11" style="stroke: #A80036; stroke-width: 1.0;"/><path d="M71.7344,24.5625 Q69.875,23.8594 69.2188,23.0938 Q68.5781,22.3125 68.5781,21 Q68.5781,19.3125 69.6563,18.3438 Q70.7344,17.375 72.6094,17.375 Q73.4688,17.375 74.3125,17.5781 Q75.1719,17.7656 76.0156,18.1563 L76.0156,20.5469 Q75.2344,19.9844 74.4063,19.7031 Q73.5938,19.4063 72.7969,19.4063 Q71.9219,19.4063 71.4375,19.7656 Q70.9688,20.125 70.9688,20.7813 Q70.9688,21.2969 71.3125,21.6406 Q71.6563,21.9688 72.75,22.375 L73.8125,22.7813 Q75.2969,23.3281 76,24.2344 Q76.7188,25.1406 76.7188,26.5156 Q76.7188,28.3906 75.6094,29.3125 Q74.5,30.2344 72.25,30.2344 Q71.3281,30.2344 70.4063,30.0156 Q69.4844,29.7969 68.625,29.375 L68.625,26.8438 Q69.5938,27.5313 70.5156,27.875 Q71.4375,28.2188 72.3281,28.2188 Q73.2344,28.2188 73.7344,27.8125 Q74.2344,27.3906 74.2344,26.6563 Q74.2344,26.0938 73.8906,25.6875 Q73.5625,25.2656 72.9375,25.0156 L71.7344,24.5625 Z "/><text fill="#000000" font-family="sans-serif" font-size="12" lengthAdjust="spacingAndGlyphs" textLength="68" x="92.75" y="28.1543">GameLogic</text><line style="stroke: #A80036; stroke-width: 1.5;" x1="7" x2="214" y1="40" y2="40"/><ellipse cx="17" cy="51.9023" fill="none" rx="3" ry="3" style="stroke: #038048; stroke-width: 1.0;"/><text fill="#000000" font-family="sans-serif" font-size="11" lengthAdjust="spacingAndGlyphs" textLength="94" x="26" y="54.2104">game: ttt::Game</text><ellipse cx="17" cy="64.707" fill="none" rx="3" ry="3" style="stroke: #038048; stroke-width: 1.0;"/><text fill="#000000" font-family="sans-serif" font-size="11" lengthAdjust="spacingAndGlyphs" textLength="89" x="26" y="67.0151">last_move_time</text><line style="stroke: #A80036; stroke-width: 1.5;" x1="7" x2="214" y1="73.6094" y2="73.6094"/><ellipse cx="17" cy="85.5117" fill="#84BE84" rx="3" ry="3" style="stroke: #038048; stroke-width: 1.0;"/><text fill="#000000" font-family="sans-serif" font-size="11" lengthAdjust="spacingAndGlyphs" textLength="183" x="26" y="87.8198">is_players_move(player) -&gt; bool</text><!--
@startuml



hide empty members

class GameLogic << (S,#ff6ad3) >> {
    + game: ttt::Game
    + last_move_time
    + is_players_move(player) -> bool
}

@enduml

PlantUML version 1.2018.13(Mon Nov 26 09:11:51 PST 2018)
(GPL source distribution)
Java Runtime: OpenJDK Runtime Environment
JVM: OpenJDK 64-Bit Server VM
Java Version: 11.0.7+10-post-Debian-3deb10u1
Operating System: Linux
OS Version: 4.19.0-9-amd64
Default Encoding: UTF-8
Language: en
Country: US
--></g></svg>