<?xml version="1.0" encoding="UTF-8" standalone="no"?><svg xmlns="http://www.w3.org/2000/svg" xmlns:xlink="http://www.w3.org/1999/xlink" contentScriptType="application/ecmascript" contentStyleType="text/css" height="195px" preserveAspectRatio="none" style="width:565px;height:195px;" version="1.1" viewBox="0 0 565 195" width="565px" zoomAndPan="magnify"><defs><filter height="300%" id="f1u40h1whjh3yp" width="300%" x="-1" y="-1"><feGaussianBlur result="blurOut" stdDeviation="2.0"/><feColorMatrix in="blurOut" result="blurOut2" type="matrix" values="0 0 0 0 0 0 0 0 0 0 0 0 0 0 0 0 0 0 .4 0"/><feOffset dx="4.0" dy="4.0" in="blurOut2" result="blurOut3"/><feBlend in="SourceGraphic" in2="blurOut3" mode="normal"/></filter></defs><g><!--class GameControls--><rect fill="#FEFECE" filter="url(#f1u40h1whjh3yp)" height="176.0469" id="GameControls" style="stroke: #A80036; stroke-width: 1.5;" width="374" x="6" y="8"/><ellipse cx="144.75" cy="24" fill="#FF6AD3" rx="11" ry="11" style="stroke: #A80036; stroke-width: 1.0;"/><path d="M144.2344,24.5625 Q142.375,23.8594 141.7188,23.0938 Q141.0781,22.3125 141.0781,21 Q141.0781,19.3125 142.1563,18.3438 Q143.2344,17.375 145.1094,17.375 Q145.9688,17.375 146.8125,17.5781 Q147.6719,17.7656 148.5156,18.1563 L148.5156,20.5469 Q147.7344,19.9844 146.9063,19.7031 Q146.0938,19.4063 145.2969,19.4063 Q144.4219,19.4063 143.9375,19.7656 Q143.4688,20.125 143.4688,20.7813 Q143.4688,21.2969 143.8125,21.6406 Q144.1563,21.9688 145.25,22.375 L146.3125,22.7813 Q147.7969,23.3281 148.5,24.2344 Q149.2188,25.1406 149.2188,26.5156 Q149.2188,28.3906 148.1094,29.3125 Q147,30.2344 144.75,30.2344 Q143.8281,30.2344 142.9063,30.0156 Q141.9844,29.7969 141.125,29.375 L141.125,26.8438 Q142.0938,27.5313 143.0156,27.875 Q143.9375,28.2188 144.8281,28.2188 Q145.7344,28.2188 146.2344,27.8125 Q146.7344,27.3906 146.7344,26.6563 Q146.7344,26.0938 146.3906,25.6875 Q146.0625,25.2656 145.4375,25.0156 L144.2344,24.5625 Z "/><text fill="#000000" font-family="sans-serif" font-size="12" lengthAdjust="spacingAndGlyphs" textLength="88" x="165.25" y="28.1543">GameControls</text><line style="stroke: #A80036; stroke-width: 1.5;" x1="7" x2="379" y1="40" y2="40"/><rect fill="none" height="6" style="stroke: #C82930; stroke-width: 1.0;" width="6" x="14" y="48.9023"/><text fill="#000000" font-family="sans-serif" font-size="11" lengthAdjust="spacingAndGlyphs" textLength="58" x="26" y="54.2104">ui_entities</text><rect fill="none" height="6" style="stroke: #C82930; stroke-width: 1.0;" width="6" x="14" y="61.707"/><text fill="#000000" font-family="sans-serif" font-size="11" lengthAdjust="spacingAndGlyphs" textLength="58" x="26" y="67.0151">observers</text><line style="stroke: #A80036; stroke-width: 1.5;" x1="7" x2="379" y1="73.6094" y2="73.6094"/><ellipse cx="17" cy="85.5117" fill="#84BE84" rx="3" ry="3" style="stroke: #038048; stroke-width: 1.0;"/><text fill="#000000" font-family="sans-serif" font-size="11" lengthAdjust="spacingAndGlyphs" textLength="31" x="26" y="87.8198">new()</text><ellipse cx="17" cy="98.3164" fill="#84BE84" rx="3" ry="3" style="stroke: #038048; stroke-width: 1.0;"/><text fill="#000000" font-family="sans-serif" font-size="11" lengthAdjust="spacingAndGlyphs" textLength="233" x="26" y="100.6245">handle_ui_event(ui_event) -&gt; Option&lt;fn&gt;</text><ellipse cx="17" cy="111.1211" fill="#84BE84" rx="3" ry="3" style="stroke: #038048; stroke-width: 1.0;"/><text fill="#000000" font-family="sans-serif" font-size="11" lengthAdjust="spacingAndGlyphs" textLength="73" x="26" y="113.4292">layout(world)</text><ellipse cx="17" cy="123.9258" fill="#84BE84" rx="3" ry="3" style="stroke: #038048; stroke-width: 1.0;"/><text fill="#000000" font-family="sans-serif" font-size="11" lengthAdjust="spacingAndGlyphs" textLength="74" x="26" y="126.2339">delete(world)</text><ellipse cx="17" cy="136.7305" fill="#84BE84" rx="3" ry="3" style="stroke: #038048; stroke-width: 1.0;"/><text fill="#000000" font-family="sans-serif" font-size="11" lengthAdjust="spacingAndGlyphs" textLength="198" x="26" y="139.0386">set_menu_button(world, on_press)</text><ellipse cx="17" cy="149.5352" fill="#84BE84" rx="3" ry="3" style="stroke: #038048; stroke-width: 1.0;"/><text fill="#000000" font-family="sans-serif" font-size="11" lengthAdjust="spacingAndGlyphs" textLength="348" x="26" y="151.8433">set_game_over_button(world, on_press) -&gt; GameOverButton</text><ellipse cx="17" cy="162.3398" fill="#84BE84" rx="3" ry="3" style="stroke: #038048; stroke-width: 1.0;"/><text fill="#000000" font-family="sans-serif" font-size="11" lengthAdjust="spacingAndGlyphs" textLength="192" x="26" y="164.6479">set_extra_information(world, text)</text><ellipse cx="17" cy="175.1445" fill="#84BE84" rx="3" ry="3" style="stroke: #038048; stroke-width: 1.0;"/><text fill="#000000" font-family="sans-serif" font-size="11" lengthAdjust="spacingAndGlyphs" textLength="189" x="26" y="177.4526">enable_speed_run_display(world)</text><!--class GameOverButton--><rect fill="#FEFECE" filter="url(#f1u40h1whjh3yp)" height="78.4141" id="GameOverButton" style="stroke: #A80036; stroke-width: 1.5;" width="139" x="415.5" y="57"/><ellipse cx="430.95" cy="73" fill="#FF6AD3" rx="11" ry="11" style="stroke: #A80036; stroke-width: 1.0;"/><path d="M430.4344,73.5625 Q428.575,72.8594 427.9188,72.0938 Q427.2781,71.3125 427.2781,70 Q427.2781,68.3125 428.3563,67.3438 Q429.4344,66.375 431.3094,66.375 Q432.1688,66.375 433.0125,66.5781 Q433.8719,66.7656 434.7156,67.1563 L434.7156,69.5469 Q433.9344,68.9844 433.1063,68.7031 Q432.2938,68.4063 431.4969,68.4063 Q430.6219,68.4063 430.1375,68.7656 Q429.6688,69.125 429.6688,69.7813 Q429.6688,70.2969 430.0125,70.6406 Q430.3563,70.9688 431.45,71.375 L432.5125,71.7813 Q433.9969,72.3281 434.7,73.2344 Q435.4188,74.1406 435.4188,75.5156 Q435.4188,77.3906 434.3094,78.3125 Q433.2,79.2344 430.95,79.2344 Q430.0281,79.2344 429.1063,79.0156 Q428.1844,78.7969 427.325,78.375 L427.325,75.8438 Q428.2938,76.5313 429.2156,76.875 Q430.1375,77.2188 431.0281,77.2188 Q431.9344,77.2188 432.4344,76.8125 Q432.9344,76.3906 432.9344,75.6563 Q432.9344,75.0938 432.5906,74.6875 Q432.2625,74.2656 431.6375,74.0156 L430.4344,73.5625 Z "/><text fill="#000000" font-family="sans-serif" font-size="12" lengthAdjust="spacingAndGlyphs" textLength="106" x="445.05" y="77.1543">GameOverButton</text><line style="stroke: #A80036; stroke-width: 1.5;" x1="416.5" x2="553.5" y1="89" y2="89"/><ellipse cx="426.5" cy="100.9023" fill="#84BE84" rx="3" ry="3" style="stroke: #038048; stroke-width: 1.0;"/><text fill="#000000" font-family="sans-serif" font-size="11" lengthAdjust="spacingAndGlyphs" textLength="113" x="435.5" y="103.2104">set_text(world, text)</text><ellipse cx="426.5" cy="113.707" fill="#84BE84" rx="3" ry="3" style="stroke: #038048; stroke-width: 1.0;"/><text fill="#000000" font-family="sans-serif" font-size="11" lengthAdjust="spacingAndGlyphs" textLength="69" x="435.5" y="116.0151">show(world)</text><ellipse cx="426.5" cy="126.5117" fill="#84BE84" rx="3" ry="3" style="stroke: #038048; stroke-width: 1.0;"/><text fill="#000000" font-family="sans-serif" font-size="11" lengthAdjust="spacingAndGlyphs" textLength="63" x="435.5" y="128.8198">hide(world)</text><!--
@startuml



hide empty members

class GameControls << (S,#ff6ad3) >> {
    - ui_entities
    - observers
    + new()
    + handle_ui_event(ui_event) -> Option<fn>
    + layout(world)
    + delete(world)
    + set_menu_button(world, on_press)
    + set_game_over_button(world, on_press) -> GameOverButton
    + set_extra_information(world, text)
    + enable_speed_run_display(world)
}

class GameOverButton << (S,#ff6ad3) >> {
    + set_text(world, text)
    + show(world)
    + hide(world)
}

@enduml

PlantUML version 1.2018.13(Mon Nov 26 09:11:51 PST 2018)
(GPL source distribution)
Java Runtime: OpenJDK Runtime Environment
JVM: OpenJDK 64-Bit Server VM
Java Version: 11.0.7+10-post-Debian-3deb10u1
Operating System: Linux
OS Version: 4.19.0-9-amd64
Default Encoding: UTF-8
Language: en
Country: US
--></g></svg>