<?xml version="1.0" encoding="UTF-8" standalone="no"?><svg xmlns="http://www.w3.org/2000/svg" xmlns:xlink="http://www.w3.org/1999/xlink" contentScriptType="application/ecmascript" contentStyleType="text/css" height="639px" preserveAspectRatio="none" style="width:562px;height:639px;" version="1.1" viewBox="0 0 562 639" width="562px" zoomAndPan="magnify"><defs><filter height="300%" id="f1o29o4cshq1r0" width="300%" x="-1" y="-1"><feGaussianBlur result="blurOut" stdDeviation="2.0"/><feColorMatrix in="blurOut" result="blurOut2" type="matrix" values="0 0 0 0 0 0 0 0 0 0 0 0 0 0 0 0 0 0 .4 0"/><feOffset dx="4.0" dy="4.0" in="blurOut2" result="blurOut3"/><feBlend in="SourceGraphic" in2="blurOut3" mode="normal"/></filter></defs><g><ellipse cx="311.5" cy="18" fill="#000000" filter="url(#f1o29o4cshq1r0)" rx="10" ry="10" style="stroke: none; stroke-width: 1.0;"/><rect fill="#FEFECE" filter="url(#f1o29o4cshq1r0)" height="40" rx="12.5" ry="12.5" style="stroke: #A80036; stroke-width: 1.5;" width="64" x="279.5" y="88"/><text fill="#000000" font-family="sans-serif" font-size="14" lengthAdjust="spacingAndGlyphs" textLength="54" x="284.5" y="112.8467">Loading</text><rect fill="#FEFECE" filter="url(#f1o29o4cshq1r0)" height="40" rx="12.5" ry="12.5" style="stroke: #A80036; stroke-width: 1.5;" width="51" x="286" y="188"/><text fill="#000000" font-family="sans-serif" font-size="14" lengthAdjust="spacingAndGlyphs" textLength="41" x="291" y="212.8467">Game</text><rect fill="#FEFECE" filter="url(#f1o29o4cshq1r0)" height="40" rx="12.5" ry="12.5" style="stroke: #A80036; stroke-width: 1.5;" width="81" x="271" y="288"/><text fill="#000000" font-family="sans-serif" font-size="14" lengthAdjust="spacingAndGlyphs" textLength="71" x="276" y="312.8467">MainMenu</text><rect fill="#FEFECE" filter="url(#f1o29o4cshq1r0)" height="40" rx="12.5" ry="12.5" style="stroke: #A80036; stroke-width: 1.5;" width="132" x="92.5" y="388"/><text fill="#000000" font-family="sans-serif" font-size="14" lengthAdjust="spacingAndGlyphs" textLength="122" x="97.5" y="412.8467">SinglePlayerMenu</text><rect fill="#FEFECE" filter="url(#f1o29o4cshq1r0)" height="40" rx="12.5" ry="12.5" style="stroke: #A80036; stroke-width: 1.5;" width="103" x="260" y="388"/><text fill="#000000" font-family="sans-serif" font-size="14" lengthAdjust="spacingAndGlyphs" textLength="93" x="265" y="412.8467">OptionsMenu</text><rect fill="#FEFECE" filter="url(#f1o29o4cshq1r0)" height="40" rx="12.5" ry="12.5" style="stroke: #A80036; stroke-width: 1.5;" width="98" x="398.5" y="388"/><text fill="#000000" font-family="sans-serif" font-size="14" lengthAdjust="spacingAndGlyphs" textLength="88" x="403.5" y="412.8467">CreditsMenu</text><ellipse cx="541.5" cy="408" fill="none" filter="url(#f1o29o4cshq1r0)" rx="10" ry="10" style="stroke: #000000; stroke-width: 1.0;"/><ellipse cx="542" cy="408.5" fill="#000000" rx="6" ry="6" style="stroke: none; stroke-width: 1.0;"/><rect fill="#FEFECE" filter="url(#f1o29o4cshq1r0)" height="40" rx="12.5" ry="12.5" style="stroke: #A80036; stroke-width: 1.5;" width="117" x="100" y="488"/><text fill="#000000" font-family="sans-serif" font-size="14" lengthAdjust="spacingAndGlyphs" textLength="107" x="105" y="512.8467">SpeedrunMenu</text><rect fill="#FEFECE" filter="url(#f1o29o4cshq1r0)" height="40" rx="12.5" ry="12.5" style="stroke: #A80036; stroke-width: 1.5;" width="119" x="6" y="588"/><text fill="#000000" font-family="sans-serif" font-size="14" lengthAdjust="spacingAndGlyphs" textLength="109" x="11" y="612.8467">SpeedrunGame</text><rect fill="#FEFECE" filter="url(#f1o29o4cshq1r0)" height="40" rx="12.5" ry="12.5" style="stroke: #A80036; stroke-width: 1.5;" width="183" x="160" y="588"/><text fill="#000000" font-family="sans-serif" font-size="14" lengthAdjust="spacingAndGlyphs" textLength="173" x="165" y="612.8467">SpeedrunBestTimeMenu</text><!--link *start to Loading--><path d="M311.5,28.3241 C311.5,41.463 311.5,64.6088 311.5,82.5795 " fill="none" id="*start-Loading" style="stroke: #A80036; stroke-width: 1.0;"/><polygon fill="#A80036" points="311.5,87.9737,315.5,78.9737,311.5,82.9737,307.5,78.9737,311.5,87.9737" style="stroke: #A80036; stroke-width: 1.0;"/><!--link Loading to Game--><path d="M311.5,128.2365 C311.5,143.9595 311.5,165.8563 311.5,182.7304 " fill="none" id="Loading-Game" style="stroke: #A80036; stroke-width: 1.0;"/><polygon fill="#A80036" points="311.5,187.7936,315.5,178.7936,311.5,182.7936,307.5,178.7936,311.5,187.7936" style="stroke: #A80036; stroke-width: 1.0;"/><!--link Game to MainMenu--><path d="M301.0192,228.2365 C298.2757,243.9595 298.0199,265.8563 300.2519,282.7304 " fill="none" id="Game-MainMenu" style="stroke: #A80036; stroke-width: 1.0;"/><polygon fill="#A80036" points="301.0245,287.7936,303.621,278.2932,300.2702,282.8508,295.7126,279.5,301.0245,287.7936" style="stroke: #A80036; stroke-width: 1.0;"/><!--link MainMenu to Game--><path d="M322.5917,287.7936 C325.5,272.0785 325.7742,250.1824 323.4143,233.3019 " fill="none" id="MainMenu-Game" style="stroke: #A80036; stroke-width: 1.0;"/><polygon fill="#A80036" points="322.5973,228.2365,320.0816,237.7587,323.3936,233.1727,327.9795,236.4846,322.5973,228.2365" style="stroke: #A80036; stroke-width: 1.0;"/><!--link MainMenu to SinglePlayerMenu--><path d="M270.8762,327.7568 C242.8509,344.1538 206.9409,367.5015 183.0548,384.7878 " fill="none" id="MainMenu-SinglePlayerMenu" style="stroke: #A80036; stroke-width: 1.0;"/><polygon fill="#A80036" points="178.7393,387.942,188.3657,385.8606,182.776,384.9916,183.645,379.4019,178.7393,387.942" style="stroke: #A80036; stroke-width: 1.0;"/><!--link SinglePlayerMenu to MainMenu--><path d="M200.2143,387.9645 C228.2526,371.6329 263.7692,348.5435 287.3715,331.3711 " fill="none" id="SinglePlayerMenu-MainMenu" style="stroke: #A80036; stroke-width: 1.0;"/><polygon fill="#A80036" points="291.6355,328.2365,282.0149,330.3447,287.607,331.1981,286.7536,336.7902,291.6355,328.2365" style="stroke: #A80036; stroke-width: 1.0;"/><!--link MainMenu to OptionsMenu--><path d="M301.0192,328.2365 C298.2757,343.9595 298.0199,365.8563 300.2519,382.7304 " fill="none" id="MainMenu-OptionsMenu" style="stroke: #A80036; stroke-width: 1.0;"/><polygon fill="#A80036" points="301.0245,387.7936,303.621,378.2932,300.2702,382.8508,295.7126,379.5,301.0245,387.7936" style="stroke: #A80036; stroke-width: 1.0;"/><!--link OptionsMenu to MainMenu--><path d="M322.5917,387.7936 C325.5,372.0785 325.7742,350.1824 323.4143,333.3019 " fill="none" id="OptionsMenu-MainMenu" style="stroke: #A80036; stroke-width: 1.0;"/><polygon fill="#A80036" points="322.5973,328.2365,320.0816,337.7587,323.3936,333.1727,327.9795,336.4846,322.5973,328.2365" style="stroke: #A80036; stroke-width: 1.0;"/><!--link MainMenu to CreditsMenu--><path d="M328.5409,328.2365 C348.048,344.6912 379.4758,367.9076 405.3709,385.0524 " fill="none" id="MainMenu-CreditsMenu" style="stroke: #A80036; stroke-width: 1.0;"/><polygon fill="#A80036" points="409.8062,387.9645,404.4783,379.6812,405.6266,385.2203,400.0875,386.3686,409.8062,387.9645" style="stroke: #A80036; stroke-width: 1.0;"/><!--link CreditsMenu to MainMenu--><path d="M431.111,387.7936 C411.8509,371.4011 380.5783,348.2833 354.5755,331.1479 " fill="none" id="CreditsMenu-MainMenu" style="stroke: #A80036; stroke-width: 1.0;"/><polygon fill="#A80036" points="350.1189,328.2365,355.466,336.5074,354.3049,330.971,359.8413,329.8099,350.1189,328.2365" style="stroke: #A80036; stroke-width: 1.0;"/><!--link MainMenu to *end--><path d="M352.1936,320.5235 C394.213,334.2512 461.0024,358.3228 514.5,388 C519.8115,390.9465 525.269,394.8048 529.875,398.3458 " fill="none" id="MainMenu-*end" style="stroke: #A80036; stroke-width: 1.0;"/><polygon fill="#A80036" points="533.837,401.4731,529.251,392.7571,529.9123,398.3752,524.2943,399.0366,533.837,401.4731" style="stroke: #A80036; stroke-width: 1.0;"/><!--link SinglePlayerMenu to Game--><path d="M173.826,387.966 C202.0534,351.0675 262.164,272.4915 292.7632,232.4925 " fill="none" id="SinglePlayerMenu-Game" style="stroke: #A80036; stroke-width: 1.0;"/><polygon fill="#A80036" points="295.9876,228.2777,287.3422,232.9954,292.9495,232.2489,293.696,237.8563,295.9876,228.2777" style="stroke: #A80036; stroke-width: 1.0;"/><!--link SinglePlayerMenu to SpeedrunMenu--><path d="M148.0192,428.2365 C145.2757,443.9595 145.0199,465.8563 147.2519,482.7304 " fill="none" id="SinglePlayerMenu-SpeedrunMenu" style="stroke: #A80036; stroke-width: 1.0;"/><polygon fill="#A80036" points="148.0245,487.7936,150.621,478.2932,147.2702,482.8508,142.7126,479.5,148.0245,487.7936" style="stroke: #A80036; stroke-width: 1.0;"/><!--link SpeedrunMenu to SinglePlayerMenu--><path d="M169.5917,487.7936 C172.5,472.0785 172.7742,450.1824 170.4143,433.3019 " fill="none" id="SpeedrunMenu-SinglePlayerMenu" style="stroke: #A80036; stroke-width: 1.0;"/><polygon fill="#A80036" points="169.5973,428.2365,167.0816,437.7587,170.3936,433.1727,174.9795,436.4846,169.5973,428.2365" style="stroke: #A80036; stroke-width: 1.0;"/><!--link SpeedrunMenu to SpeedrunGame--><path d="M129.1993,528.2365 C111.5339,544.2306 90.5015,566.6132 77.0628,583.5987 " fill="none" id="SpeedrunMenu-SpeedrunGame" style="stroke: #A80036; stroke-width: 1.0;"/><polygon fill="#A80036" points="73.8164,587.7936,82.488,583.1242,76.8766,583.8394,76.1614,578.228,73.8164,587.7936" style="stroke: #A80036; stroke-width: 1.0;"/><!--link SpeedrunGame to SpeedrunMenu--><path d="M95.3837,587.7936 C113.2092,571.8075 134.2571,549.4255 147.5669,532.4333 " fill="none" id="SpeedrunGame-SpeedrunMenu" style="stroke: #A80036; stroke-width: 1.0;"/><polygon fill="#A80036" points="150.7774,528.2365,142.1321,532.9544,147.7394,532.2077,148.4861,537.8151,150.7774,528.2365" style="stroke: #A80036; stroke-width: 1.0;"/><!--link SpeedrunMenu to SpeedrunBestTimeMenu--><path d="M166.8392,528.2365 C179.0252,544.3662 199.8718,566.993 218.1374,584.0294 " fill="none" id="SpeedrunMenu-SpeedrunBestTimeMenu" style="stroke: #A80036; stroke-width: 1.0;"/><polygon fill="#A80036" points="222.2325,587.7936,218.3134,578.7581,218.5514,584.4099,212.8995,584.6478,222.2325,587.7936" style="stroke: #A80036; stroke-width: 1.0;"/><!--link SpeedrunBestTimeMenu to SpeedrunMenu--><path d="M243.7998,587.7936 C231.7902,571.672 210.9592,549.0457 192.5481,532.0024 " fill="none" id="SpeedrunBestTimeMenu-SpeedrunMenu" style="stroke: #A80036; stroke-width: 1.0;"/><polygon fill="#A80036" points="188.4172,528.2365,192.3733,537.2559,192.1122,531.6051,197.763,531.3439,188.4172,528.2365" style="stroke: #A80036; stroke-width: 1.0;"/><!--
@startuml
hide empty description

[*] - -> Loading
Loading - -> Game
Game - -> MainMenu

MainMenu - -> Game
MainMenu - -> SinglePlayerMenu
MainMenu - -> OptionsMenu
MainMenu - -> CreditsMenu
MainMenu - -> [*]

OptionsMenu - -> MainMenu
CreditsMenu - -> MainMenu

SinglePlayerMenu - -> Game
SinglePlayerMenu - -> SpeedrunMenu
SinglePlayerMenu - -> MainMenu

SpeedrunMenu - -> SinglePlayerMenu
SpeedrunMenu - -> SpeedrunGame
SpeedrunGame - -> SpeedrunMenu
SpeedrunMenu - -> SpeedrunBestTimeMenu
SpeedrunBestTimeMenu - -> SpeedrunMenu

@enduml

PlantUML version 1.2019.01(Sat Feb 09 07:32:04 PST 2019)
(LGPL source distribution)
Java Runtime: OpenJDK Runtime Environment
JVM: OpenJDK 64-Bit Server VM
Java Version: 1.8.0_252-b09
Operating System: Linux
OS Version: 5.6.13-100.fc30.x86_64
Default Encoding: UTF-8
Language: en
Country: US
--></g></svg>