<?xml version="1.0" encoding="UTF-8" standalone="no"?><svg xmlns="http://www.w3.org/2000/svg" xmlns:xlink="http://www.w3.org/1999/xlink" contentScriptType="application/ecmascript" contentStyleType="text/css" height="371px" preserveAspectRatio="none" style="width:623px;height:371px;" version="1.1" viewBox="0 0 623 371" width="623px" zoomAndPan="magnify"><defs><filter height="300%" id="f46wd90fv1mxt" width="300%" x="-1" y="-1"><feGaussianBlur result="blurOut" stdDeviation="2.0"/><feColorMatrix in="blurOut" result="blurOut2" type="matrix" values="0 0 0 0 0 0 0 0 0 0 0 0 0 0 0 0 0 0 .4 0"/><feOffset dx="4.0" dy="4.0" in="blurOut2" result="blurOut3"/><feBlend in="SourceGraphic" in2="blurOut3" mode="normal"/></filter></defs><g><!--class Menu--><rect fill="#FEFECE" filter="url(#f46wd90fv1mxt)" height="240.0703" id="Menu" style="stroke: #A80036; stroke-width: 1.5;" width="361" x="6" y="8"/><ellipse cx="165.25" cy="24" fill="#FF6AD3" rx="11" ry="11" style="stroke: #A80036; stroke-width: 1.0;"/><path d="M164.7344,24.5625 Q162.875,23.8594 162.2188,23.0938 Q161.5781,22.3125 161.5781,21 Q161.5781,19.3125 162.6563,18.3438 Q163.7344,17.375 165.6094,17.375 Q166.4688,17.375 167.3125,17.5781 Q168.1719,17.7656 169.0156,18.1563 L169.0156,20.5469 Q168.2344,19.9844 167.4063,19.7031 Q166.5938,19.4063 165.7969,19.4063 Q164.9219,19.4063 164.4375,19.7656 Q163.9688,20.125 163.9688,20.7813 Q163.9688,21.2969 164.3125,21.6406 Q164.6563,21.9688 165.75,22.375 L166.8125,22.7813 Q168.2969,23.3281 169,24.2344 Q169.7188,25.1406 169.7188,26.5156 Q169.7188,28.3906 168.6094,29.3125 Q167.5,30.2344 165.25,30.2344 Q164.3281,30.2344 163.4063,30.0156 Q162.4844,29.7969 161.625,29.375 L161.625,26.8438 Q162.5938,27.5313 163.5156,27.875 Q164.4375,28.2188 165.3281,28.2188 Q166.2344,28.2188 166.7344,27.8125 Q167.2344,27.3906 167.2344,26.6563 Q167.2344,26.0938 166.8906,25.6875 Q166.5625,25.2656 165.9375,25.0156 L164.7344,24.5625 Z "/><text fill="#000000" font-family="sans-serif" font-size="12" lengthAdjust="spacingAndGlyphs" textLength="34" x="185.75" y="28.1543">Menu</text><line style="stroke: #A80036; stroke-width: 1.5;" x1="7" x2="366" y1="40" y2="40"/><rect fill="none" height="6" style="stroke: #C82930; stroke-width: 1.0;" width="6" x="14" y="48.9023"/><text fill="#000000" font-family="sans-serif" font-size="11" lengthAdjust="spacingAndGlyphs" textLength="58" x="26" y="54.2104">ui_entities</text><rect fill="none" height="6" style="stroke: #C82930; stroke-width: 1.0;" width="6" x="14" y="61.707"/><text fill="#000000" font-family="sans-serif" font-size="11" lengthAdjust="spacingAndGlyphs" textLength="58" x="26" y="67.0151">observers</text><line style="stroke: #A80036; stroke-width: 1.5;" x1="7" x2="366" y1="73.6094" y2="73.6094"/><ellipse cx="17" cy="85.5117" fill="#84BE84" rx="3" ry="3" style="stroke: #038048; stroke-width: 1.0;"/><text fill="#000000" font-family="sans-serif" font-size="11" lengthAdjust="spacingAndGlyphs" textLength="31" x="26" y="87.8198">new()</text><ellipse cx="17" cy="98.3164" fill="#84BE84" rx="3" ry="3" style="stroke: #038048; stroke-width: 1.0;"/><text fill="#000000" font-family="sans-serif" font-size="11" lengthAdjust="spacingAndGlyphs" textLength="73" x="26" y="100.6245">layout(world)</text><ellipse cx="17" cy="111.1211" fill="#84BE84" rx="3" ry="3" style="stroke: #038048; stroke-width: 1.0;"/><text fill="#000000" font-family="sans-serif" font-size="11" lengthAdjust="spacingAndGlyphs" textLength="74" x="26" y="113.4292">delete(world)</text><ellipse cx="17" cy="123.9258" fill="#84BE84" rx="3" ry="3" style="stroke: #038048; stroke-width: 1.0;"/><text fill="#000000" font-family="sans-serif" font-size="11" lengthAdjust="spacingAndGlyphs" textLength="276" x="26" y="126.2339">handle_ui_event(world, ui_event)  -&gt; Option&lt;fn&gt;</text><ellipse cx="17" cy="136.7305" fill="#84BE84" rx="3" ry="3" style="stroke: #038048; stroke-width: 1.0;"/><text fill="#000000" font-family="sans-serif" font-size="11" lengthAdjust="spacingAndGlyphs" textLength="113" x="26" y="139.0386">set_title(world, text)</text><ellipse cx="17" cy="149.5352" fill="#84BE84" rx="3" ry="3" style="stroke: #038048; stroke-width: 1.0;"/><text fill="#000000" font-family="sans-serif" font-size="11" lengthAdjust="spacingAndGlyphs" textLength="222" x="26" y="151.8433">set_close_button(world, text, on_close)</text><ellipse cx="17" cy="162.3398" fill="#84BE84" rx="3" ry="3" style="stroke: #038048; stroke-width: 1.0;"/><text fill="#000000" font-family="sans-serif" font-size="11" lengthAdjust="spacingAndGlyphs" textLength="192" x="26" y="164.6479">add_button(world, text, on_press)</text><ellipse cx="17" cy="175.1445" fill="#84BE84" rx="3" ry="3" style="stroke: #038048; stroke-width: 1.0;"/><text fill="#000000" font-family="sans-serif" font-size="11" lengthAdjust="spacingAndGlyphs" textLength="217" x="26" y="177.4526">add_link_button(world, text, on_press)</text><ellipse cx="17" cy="187.9492" fill="#84BE84" rx="3" ry="3" style="stroke: #038048; stroke-width: 1.0;"/><text fill="#000000" font-family="sans-serif" font-size="11" lengthAdjust="spacingAndGlyphs" textLength="122" x="26" y="190.2573">add_separator(world)</text><ellipse cx="17" cy="200.7539" fill="#84BE84" rx="3" ry="3" style="stroke: #038048; stroke-width: 1.0;"/><text fill="#000000" font-family="sans-serif" font-size="11" lengthAdjust="spacingAndGlyphs" textLength="220" x="26" y="203.062">add_paragraph(world, text, num_lines)</text><ellipse cx="17" cy="213.5586" fill="#84BE84" rx="3" ry="3" style="stroke: #038048; stroke-width: 1.0;"/><text fill="#000000" font-family="sans-serif" font-size="11" lengthAdjust="spacingAndGlyphs" textLength="335" x="26" y="215.8667">add_player_selector(world, initial_player) -&gt; PlayerSelector</text><ellipse cx="17" cy="226.3633" fill="#84BE84" rx="3" ry="3" style="stroke: #038048; stroke-width: 1.0;"/><text fill="#000000" font-family="sans-serif" font-size="11" lengthAdjust="spacingAndGlyphs" textLength="279" x="26" y="228.6714">add_text_box(world, label, initial_text) -&gt; TextBox</text><ellipse cx="17" cy="239.168" fill="#84BE84" rx="3" ry="3" style="stroke: #038048; stroke-width: 1.0;"/><text fill="#000000" font-family="sans-serif" font-size="11" lengthAdjust="spacingAndGlyphs" textLength="305" x="26" y="241.4761">add_check_box(world, label, is_checked) -&gt; CheckBox</text><!--class PlayerSelector--><rect fill="#FEFECE" filter="url(#f46wd90fv1mxt)" height="52.8047" id="PlayerSelector" style="stroke: #A80036; stroke-width: 1.5;" width="210" x="402.5" y="101.5"/><ellipse cx="458.25" cy="117.5" fill="#FF6AD3" rx="11" ry="11" style="stroke: #A80036; stroke-width: 1.0;"/><path d="M457.7344,118.0625 Q455.875,117.3594 455.2188,116.5938 Q454.5781,115.8125 454.5781,114.5 Q454.5781,112.8125 455.6563,111.8438 Q456.7344,110.875 458.6094,110.875 Q459.4688,110.875 460.3125,111.0781 Q461.1719,111.2656 462.0156,111.6563 L462.0156,114.0469 Q461.2344,113.4844 460.4063,113.2031 Q459.5938,112.9063 458.7969,112.9063 Q457.9219,112.9063 457.4375,113.2656 Q456.9688,113.625 456.9688,114.2813 Q456.9688,114.7969 457.3125,115.1406 Q457.6563,115.4688 458.75,115.875 L459.8125,116.2813 Q461.2969,116.8281 462,117.7344 Q462.7188,118.6406 462.7188,120.0156 Q462.7188,121.8906 461.6094,122.8125 Q460.5,123.7344 458.25,123.7344 Q457.3281,123.7344 456.4063,123.5156 Q455.4844,123.2969 454.625,122.875 L454.625,120.3438 Q455.5938,121.0313 456.5156,121.375 Q457.4375,121.7188 458.3281,121.7188 Q459.2344,121.7188 459.7344,121.3125 Q460.2344,120.8906 460.2344,120.1563 Q460.2344,119.5938 459.8906,119.1875 Q459.5625,118.7656 458.9375,118.5156 L457.7344,118.0625 Z "/><text fill="#000000" font-family="sans-serif" font-size="12" lengthAdjust="spacingAndGlyphs" textLength="90" x="478.75" y="121.6543">PlayerSelector</text><line style="stroke: #A80036; stroke-width: 1.5;" x1="403.5" x2="611.5" y1="133.5" y2="133.5"/><ellipse cx="413.5" cy="145.4023" fill="#84BE84" rx="3" ry="3" style="stroke: #038048; stroke-width: 1.0;"/><text fill="#000000" font-family="sans-serif" font-size="11" lengthAdjust="spacingAndGlyphs" textLength="184" x="422.5" y="147.7104">selected_player(world) -&gt; Player</text><!--class TextBox--><rect fill="#FEFECE" filter="url(#f46wd90fv1mxt)" height="52.8047" id="TextBox" style="stroke: #A80036; stroke-width: 1.5;" width="141" x="116" y="308"/><ellipse cx="158.45" cy="324" fill="#FF6AD3" rx="11" ry="11" style="stroke: #A80036; stroke-width: 1.0;"/><path d="M157.9344,324.5625 Q156.075,323.8594 155.4188,323.0938 Q154.7781,322.3125 154.7781,321 Q154.7781,319.3125 155.8563,318.3438 Q156.9344,317.375 158.8094,317.375 Q159.6688,317.375 160.5125,317.5781 Q161.3719,317.7656 162.2156,318.1563 L162.2156,320.5469 Q161.4344,319.9844 160.6063,319.7031 Q159.7938,319.4063 158.9969,319.4063 Q158.1219,319.4063 157.6375,319.7656 Q157.1688,320.125 157.1688,320.7813 Q157.1688,321.2969 157.5125,321.6406 Q157.8563,321.9688 158.95,322.375 L160.0125,322.7813 Q161.4969,323.3281 162.2,324.2344 Q162.9188,325.1406 162.9188,326.5156 Q162.9188,328.3906 161.8094,329.3125 Q160.7,330.2344 158.45,330.2344 Q157.5281,330.2344 156.6063,330.0156 Q155.6844,329.7969 154.825,329.375 L154.825,326.8438 Q155.7938,327.5313 156.7156,327.875 Q157.6375,328.2188 158.5281,328.2188 Q159.4344,328.2188 159.9344,327.8125 Q160.4344,327.3906 160.4344,326.6563 Q160.4344,326.0938 160.0906,325.6875 Q159.7625,325.2656 159.1375,325.0156 L157.9344,324.5625 Z "/><text fill="#000000" font-family="sans-serif" font-size="12" lengthAdjust="spacingAndGlyphs" textLength="48" x="178.55" y="328.1543">TextBox</text><line style="stroke: #A80036; stroke-width: 1.5;" x1="117" x2="256" y1="340" y2="340"/><ellipse cx="127" cy="351.9023" fill="#84BE84" rx="3" ry="3" style="stroke: #038048; stroke-width: 1.0;"/><text fill="#000000" font-family="sans-serif" font-size="11" lengthAdjust="spacingAndGlyphs" textLength="115" x="136" y="354.2104">text(world) -&gt; String</text><!--class CheckBox--><rect fill="#FEFECE" filter="url(#f46wd90fv1mxt)" height="52.8047" id="CheckBox" style="stroke: #A80036; stroke-width: 1.5;" width="172" x="292.5" y="308"/><ellipse cx="344.25" cy="324" fill="#FF6AD3" rx="11" ry="11" style="stroke: #A80036; stroke-width: 1.0;"/><path d="M343.7344,324.5625 Q341.875,323.8594 341.2188,323.0938 Q340.5781,322.3125 340.5781,321 Q340.5781,319.3125 341.6563,318.3438 Q342.7344,317.375 344.6094,317.375 Q345.4688,317.375 346.3125,317.5781 Q347.1719,317.7656 348.0156,318.1563 L348.0156,320.5469 Q347.2344,319.9844 346.4063,319.7031 Q345.5938,319.4063 344.7969,319.4063 Q343.9219,319.4063 343.4375,319.7656 Q342.9688,320.125 342.9688,320.7813 Q342.9688,321.2969 343.3125,321.6406 Q343.6563,321.9688 344.75,322.375 L345.8125,322.7813 Q347.2969,323.3281 348,324.2344 Q348.7188,325.1406 348.7188,326.5156 Q348.7188,328.3906 347.6094,329.3125 Q346.5,330.2344 344.25,330.2344 Q343.3281,330.2344 342.4063,330.0156 Q341.4844,329.7969 340.625,329.375 L340.625,326.8438 Q341.5938,327.5313 342.5156,327.875 Q343.4375,328.2188 344.3281,328.2188 Q345.2344,328.2188 345.7344,327.8125 Q346.2344,327.3906 346.2344,326.6563 Q346.2344,326.0938 345.8906,325.6875 Q345.5625,325.2656 344.9375,325.0156 L343.7344,324.5625 Z "/><text fill="#000000" font-family="sans-serif" font-size="12" lengthAdjust="spacingAndGlyphs" textLength="60" x="364.75" y="328.1543">CheckBox</text><line style="stroke: #A80036; stroke-width: 1.5;" x1="293.5" x2="463.5" y1="340" y2="340"/><ellipse cx="303.5" cy="351.9023" fill="#84BE84" rx="3" ry="3" style="stroke: #038048; stroke-width: 1.0;"/><text fill="#000000" font-family="sans-serif" font-size="11" lengthAdjust="spacingAndGlyphs" textLength="146" x="312.5" y="354.2104">is_checked(world) -&gt; bool</text><!--link Menu to PlayerSelector--><!--link Menu to TextBox--><!--link TextBox to CheckBox--><!--
@startuml



hide empty members

class Menu << (S,#ff6ad3) >> {
    - ui_entities
    - observers
    + new()
    + layout(world)
    + delete(world)
    + handle_ui_event(world, ui_event)  -> Option<fn>
    + set_title(world, text)
    + set_close_button(world, text, on_close)
    + add_button(world, text, on_press)
    + add_link_button(world, text, on_press)
    + add_separator(world)
    + add_paragraph(world, text, num_lines)
    + add_player_selector(world, initial_player) -> PlayerSelector
    + add_text_box(world, label, initial_text) -> TextBox
    + add_check_box(world, label, is_checked) -> CheckBox
}

class PlayerSelector << (S,#ff6ad3) >> {
    + selected_player(world) -> Player
}

class TextBox << (S,#ff6ad3) >> {
    + text(world) -> String
}

class CheckBox << (S,#ff6ad3) >> {
    + is_checked(world) -> bool
}

@enduml

PlantUML version 1.2018.13(Mon Nov 26 09:11:51 PST 2018)
(GPL source distribution)
Java Runtime: OpenJDK Runtime Environment
JVM: OpenJDK 64-Bit Server VM
Java Version: 11.0.7+10-post-Debian-3deb10u1
Operating System: Linux
OS Version: 4.19.0-9-amd64
Default Encoding: UTF-8
Language: en
Country: US
--></g></svg>