<?xml version="1.0" encoding="UTF-8" standalone="no"?><svg xmlns="http://www.w3.org/2000/svg" xmlns:xlink="http://www.w3.org/1999/xlink" contentScriptType="application/ecmascript" contentStyleType="text/css" height="210px" preserveAspectRatio="none" style="width:313px;height:210px;" version="1.1" viewBox="0 0 313 210" width="313px" zoomAndPan="magnify"><defs><filter height="300%" id="fpno6e06fxvoi" width="300%" x="-1" y="-1"><feGaussianBlur result="blurOut" stdDeviation="2.0"/><feColorMatrix in="blurOut" result="blurOut2" type="matrix" values="0 0 0 0 0 0 0 0 0 0 0 0 0 0 0 0 0 0 .4 0"/><feOffset dx="4.0" dy="4.0" in="blurOut2" result="blurOut3"/><feBlend in="SourceGraphic" in2="blurOut3" mode="normal"/></filter></defs><g><!--class Player--><rect fill="#FEFECE" filter="url(#fpno6e06fxvoi)" height="65.6094" id="Player" style="stroke: #A80036; stroke-width: 1.5;" width="70" x="18.5" y="8"/><ellipse cx="33.5" cy="24" fill="#83C98D" rx="11" ry="11" style="stroke: #A80036; stroke-width: 1.0;"/><path d="M37.6094,30 L29.8906,30 L29.8906,17.6094 L37.6094,17.6094 L37.6094,19.7656 L32.3438,19.7656 L32.3438,22.4375 L37.1094,22.4375 L37.1094,24.5938 L32.3438,24.5938 L32.3438,27.8438 L37.6094,27.8438 L37.6094,30 Z "/><text fill="#000000" font-family="sans-serif" font-size="12" lengthAdjust="spacingAndGlyphs" textLength="38" x="47.5" y="28.1543">Player</text><line style="stroke: #A80036; stroke-width: 1.5;" x1="19.5" x2="87.5" y1="40" y2="40"/><ellipse cx="29.5" cy="51.9023" fill="none" rx="3" ry="3" style="stroke: #038048; stroke-width: 1.0;"/><text fill="#000000" font-family="sans-serif" font-size="11" lengthAdjust="spacingAndGlyphs" textLength="7" x="38.5" y="54.2104">X</text><ellipse cx="29.5" cy="64.707" fill="none" rx="3" ry="3" style="stroke: #038048; stroke-width: 1.0;"/><text fill="#000000" font-family="sans-serif" font-size="11" lengthAdjust="spacingAndGlyphs" textLength="9" x="38.5" y="67.0151">O</text><!--class LocalPlayer--><rect fill="#FEFECE" filter="url(#fpno6e06fxvoi)" height="32" id="LocalPlayer" style="stroke: #A80036; stroke-width: 1.5;" width="102" x="123.5" y="25"/><ellipse cx="138.5" cy="41" fill="#FF6AD3" rx="11" ry="11" style="stroke: #A80036; stroke-width: 1.0;"/><path d="M137.9844,41.5625 Q136.125,40.8594 135.4688,40.0938 Q134.8281,39.3125 134.8281,38 Q134.8281,36.3125 135.9063,35.3438 Q136.9844,34.375 138.8594,34.375 Q139.7188,34.375 140.5625,34.5781 Q141.4219,34.7656 142.2656,35.1563 L142.2656,37.5469 Q141.4844,36.9844 140.6563,36.7031 Q139.8438,36.4063 139.0469,36.4063 Q138.1719,36.4063 137.6875,36.7656 Q137.2188,37.125 137.2188,37.7813 Q137.2188,38.2969 137.5625,38.6406 Q137.9063,38.9688 139,39.375 L140.0625,39.7813 Q141.5469,40.3281 142.25,41.2344 Q142.9688,42.1406 142.9688,43.5156 Q142.9688,45.3906 141.8594,46.3125 Q140.75,47.2344 138.5,47.2344 Q137.5781,47.2344 136.6563,47.0156 Q135.7344,46.7969 134.875,46.375 L134.875,43.8438 Q135.8438,44.5313 136.7656,44.875 Q137.6875,45.2188 138.5781,45.2188 Q139.4844,45.2188 139.9844,44.8125 Q140.4844,44.3906 140.4844,43.6563 Q140.4844,43.0938 140.1406,42.6875 Q139.8125,42.2656 139.1875,42.0156 L137.9844,41.5625 Z "/><text fill="#000000" font-family="sans-serif" font-size="12" lengthAdjust="spacingAndGlyphs" textLength="70" x="152.5" y="45.1543">LocalPlayer</text><!--class Ai--><rect fill="#FEFECE" filter="url(#fpno6e06fxvoi)" height="65.6094" id="Ai" style="stroke: #A80036; stroke-width: 1.5;" width="95" x="6" y="134"/><ellipse cx="44.4" cy="150" fill="#FF6AD3" rx="11" ry="11" style="stroke: #A80036; stroke-width: 1.0;"/><path d="M43.8844,150.5625 Q42.025,149.8594 41.3688,149.0938 Q40.7281,148.3125 40.7281,147 Q40.7281,145.3125 41.8063,144.3438 Q42.8844,143.375 44.7594,143.375 Q45.6188,143.375 46.4625,143.5781 Q47.3219,143.7656 48.1656,144.1563 L48.1656,146.5469 Q47.3844,145.9844 46.5563,145.7031 Q45.7438,145.4063 44.9469,145.4063 Q44.0719,145.4063 43.5875,145.7656 Q43.1188,146.125 43.1188,146.7813 Q43.1188,147.2969 43.4625,147.6406 Q43.8063,147.9688 44.9,148.375 L45.9625,148.7813 Q47.4469,149.3281 48.15,150.2344 Q48.8688,151.1406 48.8688,152.5156 Q48.8688,154.3906 47.7594,155.3125 Q46.65,156.2344 44.4,156.2344 Q43.4781,156.2344 42.5563,156.0156 Q41.6344,155.7969 40.775,155.375 L40.775,152.8438 Q41.7438,153.5313 42.6656,153.875 Q43.5875,154.2188 44.4781,154.2188 Q45.3844,154.2188 45.8844,153.8125 Q46.3844,153.3906 46.3844,152.6563 Q46.3844,152.0938 46.0406,151.6875 Q45.7125,151.2656 45.0875,151.0156 L43.8844,150.5625 Z "/><text fill="#000000" font-family="sans-serif" font-size="12" lengthAdjust="spacingAndGlyphs" textLength="11" x="63.6" y="154.1543">Ai</text><line style="stroke: #A80036; stroke-width: 1.5;" x1="7" x2="100" y1="166" y2="166"/><ellipse cx="17" cy="177.9023" fill="none" rx="3" ry="3" style="stroke: #038048; stroke-width: 1.0;"/><text fill="#000000" font-family="sans-serif" font-size="11" lengthAdjust="spacingAndGlyphs" textLength="69" x="26" y="180.2104">ai_opponent</text><ellipse cx="17" cy="190.707" fill="none" rx="3" ry="3" style="stroke: #038048; stroke-width: 1.0;"/><text fill="#000000" font-family="sans-serif" font-size="11" lengthAdjust="spacingAndGlyphs" textLength="67" x="26" y="193.0151">move_delay</text><!--class Mark--><rect fill="#FEFECE" filter="url(#fpno6e06fxvoi)" height="65.6094" id="Mark" style="stroke: #A80036; stroke-width: 1.5;" width="166" x="136.5" y="134"/><ellipse cx="200.25" cy="150" fill="#FF6AD3" rx="11" ry="11" style="stroke: #A80036; stroke-width: 1.0;"/><path d="M199.7344,150.5625 Q197.875,149.8594 197.2188,149.0938 Q196.5781,148.3125 196.5781,147 Q196.5781,145.3125 197.6563,144.3438 Q198.7344,143.375 200.6094,143.375 Q201.4688,143.375 202.3125,143.5781 Q203.1719,143.7656 204.0156,144.1563 L204.0156,146.5469 Q203.2344,145.9844 202.4063,145.7031 Q201.5938,145.4063 200.7969,145.4063 Q199.9219,145.4063 199.4375,145.7656 Q198.9688,146.125 198.9688,146.7813 Q198.9688,147.2969 199.3125,147.6406 Q199.6563,147.9688 200.75,148.375 L201.8125,148.7813 Q203.2969,149.3281 204,150.2344 Q204.7188,151.1406 204.7188,152.5156 Q204.7188,154.3906 203.6094,155.3125 Q202.5,156.2344 200.25,156.2344 Q199.3281,156.2344 198.4063,156.0156 Q197.4844,155.7969 196.625,155.375 L196.625,152.8438 Q197.5938,153.5313 198.5156,153.875 Q199.4375,154.2188 200.3281,154.2188 Q201.2344,154.2188 201.7344,153.8125 Q202.2344,153.3906 202.2344,152.6563 Q202.2344,152.0938 201.8906,151.6875 Q201.5625,151.2656 200.9375,151.0156 L199.7344,150.5625 Z "/><text fill="#000000" font-family="sans-serif" font-size="12" lengthAdjust="spacingAndGlyphs" textLength="30" x="220.75" y="154.1543">Mark</text><line style="stroke: #A80036; stroke-width: 1.5;" x1="137.5" x2="301.5" y1="166" y2="166"/><ellipse cx="147.5" cy="177.9023" fill="none" rx="3" ry="3" style="stroke: #038048; stroke-width: 1.0;"/><text fill="#000000" font-family="sans-serif" font-size="11" lengthAdjust="spacingAndGlyphs" textLength="78" x="156.5" y="180.2104">owner: Player</text><ellipse cx="147.5" cy="190.707" fill="none" rx="3" ry="3" style="stroke: #038048; stroke-width: 1.0;"/><text fill="#000000" font-family="sans-serif" font-size="11" lengthAdjust="spacingAndGlyphs" textLength="140" x="156.5" y="193.0151">position: Board::Position</text><!--link Player to LocalPlayer--><!--link Player to Ai--><!--link Ai to Mark--><!--
@startuml



hide empty members

enum Player << (E,#83c98d) >> {
    + X
    + O
}

class LocalPlayer << (S,#ff6ad3) >>

class Ai << (S,#ff6ad3) >> {
    + ai_opponent
    + move_delay
}

class Mark << (S,#ff6ad3) >> {
    + owner: Player
    + position: Board::Position
}

@enduml

PlantUML version 1.2019.01(Sat Feb 09 07:32:04 PST 2019)
(LGPL source distribution)
Java Runtime: OpenJDK Runtime Environment
JVM: OpenJDK 64-Bit Server VM
Java Version: 1.8.0_252-b09
Operating System: Linux
OS Version: 5.6.13-100.fc30.x86_64
Default Encoding: UTF-8
Language: en
Country: US
--></g></svg>