<?xml version="1.0" encoding="UTF-8" standalone="no"?><svg xmlns="http://www.w3.org/2000/svg" xmlns:xlink="http://www.w3.org/1999/xlink" contentScriptType="application/ecmascript" contentStyleType="text/css" height="411px" preserveAspectRatio="none" style="width:598px;height:411px;" version="1.1" viewBox="0 0 598 411" width="598px" zoomAndPan="magnify"><defs><filter height="300%" id="f9jjys6lzt2fb" width="300%" x="-1" y="-1"><feGaussianBlur result="blurOut" stdDeviation="2.0"/><feColorMatrix in="blurOut" result="blurOut2" type="matrix" values="0 0 0 0 0 0 0 0 0 0 0 0 0 0 0 0 0 0 .4 0"/><feOffset dx="4.0" dy="4.0" in="blurOut2" result="blurOut3"/><feBlend in="SourceGraphic" in2="blurOut3" mode="normal"/></filter></defs><g><polygon fill="#FFFFFF" filter="url(#f9jjys6lzt2fb)" points="118.468,8,247.468,8,254.468,30.2969,261.468,30.2969,261.468,60.5938,118.468,60.5938,118.468,8" style="stroke: #000000; stroke-width: 1.5;"/><line style="stroke: #000000; stroke-width: 1.5;" x1="118.468" x2="254.468" y1="30.2969" y2="30.2969"/><text fill="#000000" font-family="sans-serif" font-size="14" font-weight="bold" lengthAdjust="spacingAndGlyphs" textLength="123" x="122.468" y="22.9951">&lt;fossxo crate&gt;</text><polygon fill="#FFFFFF" filter="url(#f9jjys6lzt2fb)" points="217.468,121,272.468,121,279.468,143.2969,286.468,143.2969,286.468,173.5938,217.468,173.5938,217.468,121" style="stroke: #000000; stroke-width: 1.5;"/><line style="stroke: #000000; stroke-width: 1.5;" x1="217.468" x2="279.468" y1="143.2969" y2="143.2969"/><text fill="#000000" font-family="sans-serif" font-size="14" font-weight="bold" lengthAdjust="spacingAndGlyphs" textLength="49" x="221.468" y="135.9951">states</text><polygon fill="#FFFFFF" filter="url(#f9jjys6lzt2fb)" points="90.968,121,162.968,121,169.968,143.2969,176.968,143.2969,176.968,173.5938,90.968,173.5938,90.968,121" style="stroke: #000000; stroke-width: 1.5;"/><line style="stroke: #000000; stroke-width: 1.5;" x1="90.968" x2="169.968" y1="143.2969" y2="143.2969"/><text fill="#000000" font-family="sans-serif" font-size="14" font-weight="bold" lengthAdjust="spacingAndGlyphs" textLength="66" x="94.968" y="135.9951">systems</text><polygon fill="#FFFFFF" filter="url(#f9jjys6lzt2fb)" points="278.468,234,329.468,234,336.468,256.2969,343.468,256.2969,343.468,286.5938,278.468,286.5938,278.468,234" style="stroke: #000000; stroke-width: 1.5;"/><line style="stroke: #000000; stroke-width: 1.5;" x1="278.468" x2="336.468" y1="256.2969" y2="256.2969"/><text fill="#000000" font-family="sans-serif" font-size="14" font-weight="bold" lengthAdjust="spacingAndGlyphs" textLength="45" x="282.468" y="248.9951">file_io</text><polygon fill="#FFFFFF" filter="url(#f9jjys6lzt2fb)" points="32.968,234,92.968,234,99.968,256.2969,106.968,256.2969,106.968,286.5938,32.968,286.5938,32.968,234" style="stroke: #000000; stroke-width: 1.5;"/><line style="stroke: #000000; stroke-width: 1.5;" x1="32.968" x2="99.968" y1="256.2969" y2="256.2969"/><text fill="#000000" font-family="sans-serif" font-size="14" font-weight="bold" lengthAdjust="spacingAndGlyphs" textLength="54" x="36.968" y="248.9951">events</text><polygon fill="#FFFFFF" filter="url(#f9jjys6lzt2fb)" points="378.468,234,493.468,234,500.468,256.2969,507.468,256.2969,507.468,286.5938,378.468,286.5938,378.468,234" style="stroke: #000000; stroke-width: 1.5;"/><line style="stroke: #000000; stroke-width: 1.5;" x1="378.468" x2="500.468" y1="256.2969" y2="256.2969"/><text fill="#000000" font-family="sans-serif" font-size="14" font-weight="bold" lengthAdjust="spacingAndGlyphs" textLength="109" x="382.468" y="248.9951">environments</text><polygon fill="#FFFFFF" filter="url(#f9jjys6lzt2fb)" points="151.968,347,255.968,347,262.968,369.2969,269.968,369.2969,269.968,399.5938,151.968,399.5938,151.968,347" style="stroke: #000000; stroke-width: 1.5;"/><line style="stroke: #000000; stroke-width: 1.5;" x1="151.968" x2="262.968" y1="369.2969" y2="369.2969"/><text fill="#000000" font-family="sans-serif" font-size="14" font-weight="bold" lengthAdjust="spacingAndGlyphs" textLength="98" x="155.968" y="361.9951">components</text><polygon fill="#FFFFFF" filter="url(#f9jjys6lzt2fb)" points="142.468,234,229.468,234,236.468,256.2969,243.468,256.2969,243.468,286.5938,142.468,286.5938,142.468,234" style="stroke: #000000; stroke-width: 1.5;"/><line style="stroke: #000000; stroke-width: 1.5;" x1="142.468" x2="236.468" y1="256.2969" y2="256.2969"/><text fill="#000000" font-family="sans-serif" font-size="14" font-weight="bold" lengthAdjust="spacingAndGlyphs" textLength="81" x="146.468" y="248.9951">resources</text><polygon fill="#FFFFFF" filter="url(#f9jjys6lzt2fb)" points="542.968,234,562.968,234,569.968,256.2969,576.968,256.2969,576.968,286.5938,542.968,286.5938,542.968,234" style="stroke: #000000; stroke-width: 1.5;"/><line style="stroke: #000000; stroke-width: 1.5;" x1="542.968" x2="569.968" y1="256.2969" y2="256.2969"/><text fill="#000000" font-family="sans-serif" font-size="14" font-weight="bold" lengthAdjust="spacingAndGlyphs" textLength="14" x="546.968" y="248.9951">ui</text><!--link <fossxo crate> to states--><path d="M207.2737,66.0411 C216.7515,83.315 228.3666,104.4845 237.3804,120.9128 " fill="none" id="&lt;fossxo crate&gt;-states" style="stroke: #A80036; stroke-width: 1.0;"/><polygon fill="#A80036" points="204.6612,61.2794,205.4836,71.0939,207.0663,65.6629,212.4972,67.2457,204.6612,61.2794" style="stroke: #A80036; stroke-width: 1.0;"/><!--link <fossxo crate> to systems--><path d="M174.337,66.0411 C165.7765,83.315 155.2854,104.4845 147.144,120.9128 " fill="none" id="&lt;fossxo crate&gt;-systems" style="stroke: #A80036; stroke-width: 1.0;"/><polygon fill="#A80036" points="176.6968,61.2794,169.1164,67.5673,174.4766,65.7594,176.2844,71.1196,176.6968,61.2794" style="stroke: #A80036; stroke-width: 1.0;"/><!--link states to file_io--><path d="M268.4364,179.0411 C277.4555,196.315 288.5086,217.4845 297.0862,233.9128 " fill="none" id="states-file_io" style="stroke: #A80036; stroke-width: 1.0;"/><polygon fill="#A80036" points="265.9502,174.2794,266.5698,184.1087,268.2643,178.7116,273.6614,180.4061,265.9502,174.2794" style="stroke: #A80036; stroke-width: 1.0;"/><!--link states to environments--><path d="M291.036,170.6135 C322.022,188.9456 365.3677,214.5899 397.8341,233.7977 " fill="none" id="states-environments" style="stroke: #A80036; stroke-width: 1.0;"/><polygon fill="#A80036" points="286.5567,167.9634,292.2658,175.9888,290.86,170.5094,296.3393,169.1036,286.5567,167.9634" style="stroke: #A80036; stroke-width: 1.0;"/><!--link states to events--><path d="M212.7735,171.8351 C181.4223,191.3003 137.7697,218.4034 107.0024,237.5061 " fill="none" id="states-events" style="stroke: #A80036; stroke-width: 1.0;"/><polygon fill="#A80036" points="217.3068,169.0204,207.5508,170.3695,213.059,171.6578,211.7706,177.166,217.3068,169.0204" style="stroke: #A80036; stroke-width: 1.0;"/><!--link states to resources--><path d="M235.4997,179.0411 C226.4805,196.315 215.4274,217.4845 206.8498,233.9128 " fill="none" id="states-resources" style="stroke: #A80036; stroke-width: 1.0;"/><polygon fill="#A80036" points="237.9858,174.2794,230.2746,180.4061,235.6717,178.7116,237.3662,184.1087,237.9858,174.2794" style="stroke: #A80036; stroke-width: 1.0;"/><!--link states to ui--><path d="M291.7747,155.6173 C346.454,167.751 446.8979,193.6086 524.968,234 C531.1958,237.2221 537.4676,241.5508 542.9475,245.7746 " fill="none" id="states-ui" style="stroke: #A80036; stroke-width: 1.0;"/><polygon fill="#A80036" points="286.6283,154.4858,294.5594,160.3251,291.5117,155.5595,296.2773,152.5118,286.6283,154.4858" style="stroke: #A80036; stroke-width: 1.0;"/><!--link systems to components--><path d="M86.2281,168.5552 C60.039,182.8948 29.9268,204.6335 14.968,234 C4.2764,254.9894 2.1065,267.2656 14.968,287 C45.0243,333.1177 105.8368,354.8226 151.7979,364.9281 " fill="none" id="systems-components" style="stroke: #A80036; stroke-width: 1.0;"/><polygon fill="#A80036" points="90.7303,166.1408,80.9084,166.8693,86.324,168.5039,84.6894,173.9194,90.7303,166.1408" style="stroke: #A80036; stroke-width: 1.0;"/><!--link systems to resources--><path d="M150.4364,179.0411 C159.4555,196.315 170.5086,217.4845 179.0862,233.9128 " fill="none" id="systems-resources" style="stroke: #A80036; stroke-width: 1.0;"/><polygon fill="#A80036" points="147.9502,174.2794,148.5698,184.1087,150.2643,178.7116,155.6614,180.4061,147.9502,174.2794" style="stroke: #A80036; stroke-width: 1.0;"/><!--link systems to events--><path d="M116.104,179.0411 C106.3206,196.315 94.3308,217.4845 85.0263,233.9128 " fill="none" id="systems-events" style="stroke: #A80036; stroke-width: 1.0;"/><polygon fill="#A80036" points="118.8009,174.2794,110.885,180.1393,116.3368,178.6301,117.846,184.0819,118.8009,174.2794" style="stroke: #A80036; stroke-width: 1.0;"/><!--link environments to components--><path d="M383.4521,289.4883 C347.1489,307.1705 301.0815,329.6085 265.6894,346.8469 " fill="none" id="environments-components" style="stroke: #A80036; stroke-width: 1.0;"/><polygon fill="#A80036" points="388.281,287.1363,378.4382,287.4812,383.7858,289.3257,381.9413,294.6734,388.281,287.1363" style="stroke: #A80036; stroke-width: 1.0;"/><!--
@startuml



hide empty members

package "<fossxo crate>" { }
package states { }
package systems { }
package file_io { }
package events { }
package environments { }
package components { }
package resources { }
package ui { }

"<fossxo crate>" <- - states
"<fossxo crate>" <- - systems
states <- - file_io
states <- - environments
states <- - events
states <- - resources
states <- - ui

systems <- - components
systems <- - resources
systems <- - events
environments <- - components

@enduml

PlantUML version 1.2018.13(Mon Nov 26 09:11:51 PST 2018)
(GPL source distribution)
Java Runtime: OpenJDK Runtime Environment
JVM: OpenJDK 64-Bit Server VM
Java Version: 11.0.7+10-post-Debian-3deb10u1
Operating System: Linux
OS Version: 4.19.0-9-amd64
Default Encoding: UTF-8
Language: en
Country: US
--></g></svg>