<?xml version="1.0" encoding="UTF-8" standalone="no"?>
<svg
   xmlns:dc="http://purl.org/dc/elements/1.1/"
   xmlns:cc="http://creativecommons.org/ns#"
   xmlns:rdf="http://www.w3.org/1999/02/22-rdf-syntax-ns#"
   xmlns:svg="http://www.w3.org/2000/svg"
   xmlns="http://www.w3.org/2000/svg"
   id="svg8"
   version="1.1"
   viewBox="0 0 1024.3859 1018.7785"
   height="3.3959284in"
   width="3.4146197in">
  <defs
     id="defs2">
    <marker
       style="overflow:visible"
       id="Arrow2Mend-3-2-2"
       refX="0"
       refY="0"
       orient="auto">
      <path
         transform="scale(-0.6)"
         d="M 8.7185878,4.0337352 -2.2072895,0.01601326 8.7185884,-4.0017078 c -1.7454984,2.3720609 -1.7354408,5.6174519 -6e-7,8.035443 z"
         style="fill:#000000;fill-opacity:1;fill-rule:evenodd;stroke:#000000;stroke-width:0.625;stroke-linejoin:round;stroke-opacity:1"
         id="path863-6-9-7" />
    </marker>
    <marker
       style="overflow:visible"
       id="Arrow2Mend-3-2-2-9"
       refX="0"
       refY="0"
       orient="auto">
      <path
         transform="scale(-0.6)"
         d="M 8.7185878,4.0337352 -2.2072895,0.01601326 8.7185884,-4.0017078 c -1.7454984,2.3720609 -1.7354408,5.6174519 -6e-7,8.035443 z"
         style="fill:#000000;fill-opacity:1;fill-rule:evenodd;stroke:#000000;stroke-width:0.625;stroke-linejoin:round;stroke-opacity:1"
         id="path863-6-9-7-3" />
    </marker>
    <marker
       style="overflow:visible"
       id="Arrow2Mend-3-2-2-9-0"
       refX="0"
       refY="0"
       orient="auto">
      <path
         transform="scale(-0.6)"
         d="M 8.7185878,4.0337352 -2.2072895,0.01601326 8.7185884,-4.0017078 c -1.7454984,2.3720609 -1.7354408,5.6174519 -6e-7,8.035443 z"
         style="fill:#000000;fill-opacity:1;fill-rule:evenodd;stroke:#000000;stroke-width:0.625;stroke-linejoin:round;stroke-opacity:1"
         id="path863-6-9-7-3-6" />
    </marker>
    <marker
       style="overflow:visible"
       id="Arrow2Mend-3-2-2-8"
       refX="0"
       refY="0"
       orient="auto">
      <path
         transform="scale(-0.6)"
         d="M 8.7185878,4.0337352 -2.2072895,0.01601326 8.7185884,-4.0017078 c -1.7454984,2.3720609 -1.7354408,5.6174519 -6e-7,8.035443 z"
         style="fill:#000000;fill-opacity:1;fill-rule:evenodd;stroke:#000000;stroke-width:0.625;stroke-linejoin:round;stroke-opacity:1"
         id="path863-6-9-7-7" />
    </marker>
    <marker
       style="overflow:visible"
       id="Arrow2Mend-3-2-2-82"
       refX="0"
       refY="0"
       orient="auto">
      <path
         transform="scale(-0.6)"
         d="M 8.7185878,4.0337352 -2.2072895,0.01601326 8.7185884,-4.0017078 c -1.7454984,2.3720609 -1.7354408,5.6174519 -6e-7,8.035443 z"
         style="fill:#000000;fill-opacity:1;fill-rule:evenodd;stroke:#000000;stroke-width:0.625;stroke-linejoin:round;stroke-opacity:1"
         id="path863-6-9-7-9" />
    </marker>
  </defs>
  <metadata
     id="metadata5">
    <rdf:RDF>
      <cc:Work
         rdf:about="">
        <dc:format>image/svg+xml</dc:format>
        <dc:type
           rdf:resource="http://purl.org/dc/dcmitype/StillImage" />
        <dc:title></dc:title>
      </cc:Work>
    </rdf:RDF>
  </metadata>
  <g
     transform="translate(-2.0238659,-1028.2021)"
     id="layer1">
    <circle
       r="12.493841"
       cy="1590.7896"
       cx="463.05991"
       id="path859"
       style="opacity:1;fill:#00ffff;fill-opacity:1;stroke:#000000;stroke-width:4.16461372;stroke-miterlimit:4;stroke-dasharray:none;stroke-dashoffset:0;stroke-opacity:1" />
    <g
       transform="matrix(1.3326764,0,0,1.3326764,193.10831,-561.87312)"
       id="g6347">
      <path
         style="fill:none;stroke:#000000;stroke-width:6.25624943;stroke-linecap:butt;stroke-linejoin:miter;stroke-miterlimit:4;stroke-dasharray:none;stroke-opacity:1;marker-end:url(#Arrow2Mend-3-2-2)"
         d="M 463.14713,1355.2813 V 1202.6027"
         id="path834-7-1-0" />
      <g
         aria-label="y"
         transform="matrix(3.125,0,0,3.125,194.24227,479.49311)"
         style="font-style:normal;font-weight:normal;font-size:21.33333397px;line-height:1.25;font-family:sans-serif;letter-spacing:0px;word-spacing:0px;fill:#000000;fill-opacity:1;stroke:none"
         id="flowRoot2025-6">
        <path
           d="m 72.579427,264.38607 q -0.8125,2.08333 -1.583333,2.71875 -0.770833,0.63542 -2.0625,0.63542 h -1.53125 v -1.60417 h 1.125 q 0.791667,0 1.229167,-0.375 0.4375,-0.375 0.96875,-1.77084 l 0.34375,-0.875 -4.718751,-11.47916 h 2.03125 l 3.645834,9.125 3.645833,-9.125 h 2.03125 z"
           id="path972" />
      </g>
      <g
         aria-label="x"
         transform="matrix(3.125,0,0,3.125,309.76078,585.0396)"
         style="font-style:normal;font-weight:normal;font-size:21.33333397px;line-height:1.25;font-family:sans-serif;letter-spacing:0px;word-spacing:0px;fill:#000000;fill-opacity:1;stroke:none"
         id="flowRoot2025-5-9">
        <path
           d="m 77.423177,251.63607 -4.21875,5.67708 4.4375,5.98958 h -2.260416 l -3.395834,-4.58333 -3.395833,4.58333 h -2.260417 l 4.53125,-6.10416 -4.145833,-5.5625 h 2.260417 l 3.09375,4.15625 3.09375,-4.15625 z"
           id="path951" />
      </g>
      <path
         style="fill:none;stroke:#000000;stroke-width:6.25624943;stroke-linecap:butt;stroke-linejoin:miter;stroke-miterlimit:4;stroke-dasharray:none;stroke-opacity:1;marker-end:url(#Arrow2Mend-3-2-2-82)"
         d="m 463.14713,1355.2813 h 152.6786"
         id="path834-7-1-0-9" />
    </g>
    <circle
       r="12.493841"
       cy="1240.8245"
       cx="463.05991"
       id="path859-6"
       style="opacity:1;fill:#00ffff;fill-opacity:1;stroke:#000000;stroke-width:4.16461372;stroke-miterlimit:4;stroke-dasharray:none;stroke-dashoffset:0;stroke-opacity:1" />
    <circle
       r="12.493841"
       cy="1929.5042"
       cx="813.1051"
       id="path859-6-6"
       style="opacity:1;fill:#00ffff;fill-opacity:1;stroke:#000000;stroke-width:4.16461372;stroke-miterlimit:4;stroke-dasharray:none;stroke-dashoffset:0;stroke-opacity:1" />
    <circle
       r="12.493841"
       cy="1240.8245"
       cx="813.1051"
       id="path859-6-4"
       style="opacity:1;fill:#00ffff;fill-opacity:1;stroke:#000000;stroke-width:4.16461372;stroke-miterlimit:4;stroke-dasharray:none;stroke-dashoffset:0;stroke-opacity:1" />
    <circle
       r="12.493841"
       cy="1590.7896"
       cx="813.1051"
       id="path859-6-0"
       style="opacity:1;fill:#00ffff;fill-opacity:1;stroke:#000000;stroke-width:4.16461372;stroke-miterlimit:4;stroke-dasharray:none;stroke-dashoffset:0;stroke-opacity:1" />
    <circle
       r="12.493841"
       cy="1240.8245"
       cx="124.26512"
       id="path859-6-04"
       style="opacity:1;fill:#00ffff;fill-opacity:1;stroke:#000000;stroke-width:4.16461372;stroke-miterlimit:4;stroke-dasharray:none;stroke-dashoffset:0;stroke-opacity:1" />
    <circle
       r="12.493841"
       cy="1929.5042"
       cx="463.05991"
       id="path859-62"
       style="opacity:1;fill:#00ffff;fill-opacity:1;stroke:#000000;stroke-width:4.16461372;stroke-miterlimit:4;stroke-dasharray:none;stroke-dashoffset:0;stroke-opacity:1" />
    <circle
       r="12.493841"
       cy="1590.7896"
       cx="124.26512"
       id="path859-67"
       style="opacity:1;fill:#00ffff;fill-opacity:1;stroke:#000000;stroke-width:4.16461372;stroke-miterlimit:4;stroke-dasharray:none;stroke-dashoffset:0;stroke-opacity:1" />
    <circle
       r="12.493841"
       cy="1929.5042"
       cx="124.26512"
       id="path859-5"
       style="opacity:1;fill:#00ffff;fill-opacity:1;stroke:#000000;stroke-width:4.16461372;stroke-miterlimit:4;stroke-dasharray:none;stroke-dashoffset:0;stroke-opacity:1" />
    <g
       id="flowRoot1017"
       style="font-style:normal;font-weight:normal;font-size:16px;line-height:1.25;font-family:sans-serif;letter-spacing:0px;word-spacing:0px;fill:#000000;fill-opacity:1;stroke:none"
       transform="matrix(4.1646136,0,0,4.1646136,-161.79898,1223.9369)"
       aria-label="Middle">
      <path
         id="path895"
         style=""
         d="m 124.80859,67.353516 h 2.35157 l 2.97656,7.9375 2.99219,-7.9375 h 2.35156 v 11.664062 h -1.53906 V 68.775391 l -3.00782,8 h -1.58593 l -3.00782,-8 v 10.242187 h -1.53125 z" />
      <path
         id="path897"
         style=""
         d="m 138.55859,70.267578 h 1.4375 v 8.75 h -1.4375 z m 0,-3.40625 h 1.4375 v 1.820313 h -1.4375 z" />
      <path
         id="path899"
         style=""
         d="m 148.75391,71.595703 v -4.734375 h 1.4375 v 12.15625 h -1.4375 v -1.3125 q -0.45313,0.78125 -1.14844,1.164063 -0.6875,0.375 -1.65625,0.375 -1.58594,0 -2.58594,-1.265625 -0.99219,-1.265625 -0.99219,-3.328125 0,-2.0625 0.99219,-3.328125 1,-1.265625 2.58594,-1.265625 0.96875,0 1.65625,0.382812 0.69531,0.375 1.14844,1.15625 z m -4.89844,3.054688 q 0,1.585937 0.64844,2.492187 0.65625,0.898438 1.79687,0.898438 1.14063,0 1.79688,-0.898438 0.65625,-0.90625 0.65625,-2.492187 0,-1.585938 -0.65625,-2.484375 -0.65625,-0.90625 -1.79688,-0.90625 -1.14062,0 -1.79687,0.90625 -0.64844,0.898437 -0.64844,2.484375 z" />
      <path
         id="path901"
         style=""
         d="m 158.91016,71.595703 v -4.734375 h 1.4375 v 12.15625 h -1.4375 v -1.3125 q -0.45313,0.78125 -1.14844,1.164063 -0.6875,0.375 -1.65625,0.375 -1.58594,0 -2.58594,-1.265625 -0.99219,-1.265625 -0.99219,-3.328125 0,-2.0625 0.99219,-3.328125 1,-1.265625 2.58594,-1.265625 0.96875,0 1.65625,0.382812 0.69531,0.375 1.14844,1.15625 z m -4.89844,3.054688 q 0,1.585937 0.64844,2.492187 0.65625,0.898438 1.79687,0.898438 1.14063,0 1.79688,-0.898438 0.65625,-0.90625 0.65625,-2.492187 0,-1.585938 -0.65625,-2.484375 -0.65625,-0.90625 -1.79688,-0.90625 -1.14062,0 -1.79687,0.90625 -0.64844,0.898437 -0.64844,2.484375 z" />
      <path
         id="path903"
         style=""
         d="m 163.30859,66.861328 h 1.4375 v 12.15625 h -1.4375 z" />
      <path
         id="path905"
         style=""
         d="m 175.23047,74.283203 v 0.703125 h -6.60938 q 0.0937,1.484375 0.89063,2.265625 0.80469,0.773438 2.23437,0.773438 0.82813,0 1.60157,-0.203125 0.78125,-0.203125 1.54687,-0.609375 v 1.359375 q -0.77344,0.328125 -1.58594,0.5 -0.8125,0.171875 -1.64843,0.171875 -2.09375,0 -3.32032,-1.21875 -1.21875,-1.21875 -1.21875,-3.296875 0,-2.148438 1.15625,-3.40625 1.16407,-1.265625 3.13282,-1.265625 1.76562,0 2.78906,1.140625 1.03125,1.132812 1.03125,3.085937 z m -1.4375,-0.421875 q -0.0156,-1.179687 -0.66406,-1.882812 -0.64063,-0.703125 -1.70313,-0.703125 -1.20312,0 -1.92969,0.679687 -0.71875,0.679688 -0.82812,1.914063 z" />
    </g>
    <g
       id="flowRoot1017-6"
       style="font-style:normal;font-weight:normal;font-size:16px;line-height:1.25;font-family:sans-serif;letter-spacing:0px;word-spacing:0px;fill:#000000;fill-opacity:1;stroke:none"
       transform="matrix(4.1646136,0,0,4.1646136,-511.02074,865.89368)"
       aria-label="Top Left">
      <path
         id="path880"
         style=""
         d="m 123.19141,67.353516 h 9.86718 v 1.328125 h -4.14062 v 10.335937 h -1.58594 V 68.681641 h -4.14062 z" />
      <path
         id="path882"
         style=""
         d="m 135.19922,71.275391 q -1.15625,0 -1.82813,0.90625 -0.67187,0.898437 -0.67187,2.46875 0,1.570312 0.66406,2.476562 0.67188,0.898438 1.83594,0.898438 1.14844,0 1.82031,-0.90625 0.67188,-0.90625 0.67188,-2.46875 0,-1.554688 -0.67188,-2.460938 -0.67187,-0.914062 -1.82031,-0.914062 z m 0,-1.21875 q 1.875,0 2.94531,1.21875 1.07031,1.21875 1.07031,3.375 0,2.148437 -1.07031,3.375 -1.07031,1.21875 -2.94531,1.21875 -1.88281,0 -2.95313,-1.21875 -1.0625,-1.226563 -1.0625,-3.375 0,-2.15625 1.0625,-3.375 1.07032,-1.21875 2.95313,-1.21875 z" />
      <path
         id="path884"
         style=""
         d="m 142.98047,77.705078 v 4.640625 h -1.44531 V 70.267578 h 1.44531 v 1.328125 q 0.45312,-0.78125 1.14062,-1.15625 0.69532,-0.382812 1.65625,-0.382812 1.59375,0 2.58594,1.265625 1,1.265625 1,3.328125 0,2.0625 -1,3.328125 -0.99219,1.265625 -2.58594,1.265625 -0.96093,0 -1.65625,-0.375 -0.6875,-0.382813 -1.14062,-1.164063 z m 4.89062,-3.054687 q 0,-1.585938 -0.65625,-2.484375 -0.64843,-0.90625 -1.78906,-0.90625 -1.14062,0 -1.79687,0.90625 -0.64844,0.898437 -0.64844,2.484375 0,1.585937 0.64844,2.492187 0.65625,0.898438 1.79687,0.898438 1.14063,0 1.78906,-0.898438 0.65625,-0.90625 0.65625,-2.492187 z" />
      <path
         id="path886"
         style=""
         d="m 156.90234,67.353516 h 1.57813 v 10.335937 h 5.67969 v 1.328125 h -7.25782 z" />
      <path
         id="path888"
         style=""
         d="m 172.94922,74.283203 v 0.703125 h -6.60938 q 0.0937,1.484375 0.89063,2.265625 0.80469,0.773438 2.23437,0.773438 0.82813,0 1.60157,-0.203125 0.78125,-0.203125 1.54687,-0.609375 v 1.359375 q -0.77344,0.328125 -1.58594,0.5 -0.8125,0.171875 -1.64843,0.171875 -2.09375,0 -3.32032,-1.21875 -1.21875,-1.21875 -1.21875,-3.296875 0,-2.148438 1.15625,-3.40625 1.16407,-1.265625 3.13282,-1.265625 1.76562,0 2.78906,1.140625 1.03125,1.132812 1.03125,3.085937 z m -1.4375,-0.421875 q -0.0156,-1.179687 -0.66406,-1.882812 -0.64063,-0.703125 -1.70313,-0.703125 -1.20312,0 -1.92969,0.679687 -0.71875,0.679688 -0.82812,1.914063 z" />
      <path
         id="path890"
         style=""
         d="m 179.73828,66.861328 v 1.195313 h -1.375 q -0.77344,0 -1.07812,0.3125 -0.29688,0.3125 -0.29688,1.125 v 0.773437 h 2.36719 v 1.117188 h -2.36719 v 7.632812 h -1.44531 v -7.632812 h -1.375 v -1.117188 h 1.375 v -0.609375 q 0,-1.460937 0.67969,-2.125 0.67968,-0.671875 2.15625,-0.671875 z" />
      <path
         id="path892"
         style=""
         d="m 182.07422,67.783203 v 2.484375 h 2.96094 v 1.117188 h -2.96094 v 4.75 q 0,1.070312 0.28906,1.375 0.29688,0.304687 1.19531,0.304687 h 1.47657 v 1.203125 h -1.47657 q -1.66406,0 -2.29687,-0.617187 -0.63281,-0.625 -0.63281,-2.265625 v -4.75 h -1.05469 v -1.117188 h 1.05469 v -2.484375 z" />
    </g>
    <g
       id="flowRoot1017-6-6"
       style="font-style:normal;font-weight:normal;font-size:16px;line-height:1.25;font-family:sans-serif;letter-spacing:0px;word-spacing:0px;fill:#000000;fill-opacity:1;stroke:none"
       transform="matrix(4.1646136,0,0,4.1646136,73.516365,1704.0426)"
       aria-label="Bottom Right">
      <path
         id="path908"
         style=""
         d="m 126.38672,73.447266 v 4.273437 h 2.53125 q 1.27344,0 1.88281,-0.523437 0.61719,-0.53125 0.61719,-1.617188 0,-1.09375 -0.61719,-1.609375 -0.60937,-0.523437 -1.88281,-0.523437 z m 0,-4.796875 v 3.515625 h 2.33594 q 1.15625,0 1.71875,-0.429688 0.57031,-0.4375 0.57031,-1.328125 0,-0.882812 -0.57031,-1.320312 -0.5625,-0.4375 -1.71875,-0.4375 z m -1.57813,-1.296875 h 4.03125 q 1.80469,0 2.78125,0.75 0.97657,0.75 0.97657,2.132812 0,1.070313 -0.5,1.703125 -0.5,0.632813 -1.46875,0.789063 1.16406,0.25 1.80468,1.046875 0.64844,0.789062 0.64844,1.976562 0,1.5625 -1.0625,2.414063 -1.0625,0.851562 -3.02344,0.851562 h -4.1875 z" />
      <path
         id="path910"
         style=""
         d="m 139.10547,71.275391 q -1.15625,0 -1.82813,0.90625 -0.67187,0.898437 -0.67187,2.46875 0,1.570312 0.66406,2.476562 0.67188,0.898438 1.83594,0.898438 1.14844,0 1.82031,-0.90625 0.67188,-0.90625 0.67188,-2.46875 0,-1.554688 -0.67188,-2.460938 -0.67187,-0.914062 -1.82031,-0.914062 z m 0,-1.21875 q 1.875,0 2.94531,1.21875 1.07031,1.21875 1.07031,3.375 0,2.148437 -1.07031,3.375 -1.07031,1.21875 -2.94531,1.21875 -1.88281,0 -2.95313,-1.21875 -1.0625,-1.226563 -1.0625,-3.375 0,-2.15625 1.0625,-3.375 1.07032,-1.21875 2.95313,-1.21875 z" />
      <path
         id="path912"
         style=""
         d="m 146.91797,67.783203 v 2.484375 h 2.96094 v 1.117188 h -2.96094 v 4.75 q 0,1.070312 0.28906,1.375 0.29688,0.304687 1.19531,0.304687 h 1.47657 v 1.203125 h -1.47657 q -1.66406,0 -2.29687,-0.617187 -0.63281,-0.625 -0.63281,-2.265625 v -4.75 h -1.05469 v -1.117188 h 1.05469 v -2.484375 z" />
      <path
         id="path914"
         style=""
         d="m 153.19922,67.783203 v 2.484375 h 2.96094 v 1.117188 h -2.96094 v 4.75 q 0,1.070312 0.28906,1.375 0.29688,0.304687 1.19531,0.304687 h 1.47657 v 1.203125 h -1.47657 q -1.66406,0 -2.29687,-0.617187 -0.63281,-0.625 -0.63281,-2.265625 v -4.75 h -1.05469 v -1.117188 h 1.05469 v -2.484375 z" />
      <path
         id="path916"
         style=""
         d="m 161.44922,71.275391 q -1.15625,0 -1.82813,0.90625 -0.67187,0.898437 -0.67187,2.46875 0,1.570312 0.66406,2.476562 0.67188,0.898438 1.83594,0.898438 1.14844,0 1.82031,-0.90625 0.67188,-0.90625 0.67188,-2.46875 0,-1.554688 -0.67188,-2.460938 -0.67187,-0.914062 -1.82031,-0.914062 z m 0,-1.21875 q 1.875,0 2.94531,1.21875 1.07031,1.21875 1.07031,3.375 0,2.148437 -1.07031,3.375 -1.07031,1.21875 -2.94531,1.21875 -1.88281,0 -2.95313,-1.21875 -1.0625,-1.226563 -1.0625,-3.375 0,-2.15625 1.0625,-3.375 1.07032,-1.21875 2.95313,-1.21875 z" />
      <path
         id="path918"
         style=""
         d="m 174.65234,71.947266 q 0.53907,-0.96875 1.28907,-1.429688 0.75,-0.460937 1.76562,-0.460937 1.36719,0 2.10938,0.960937 0.74218,0.953125 0.74218,2.71875 v 5.28125 h -1.44531 v -5.234375 q 0,-1.257812 -0.44531,-1.867187 -0.44531,-0.609375 -1.35938,-0.609375 -1.11718,0 -1.76562,0.742187 -0.64844,0.742188 -0.64844,2.023438 v 4.945312 h -1.44531 v -5.234375 q 0,-1.265625 -0.44531,-1.867187 -0.44532,-0.609375 -1.375,-0.609375 -1.10157,0 -1.75,0.75 -0.64844,0.742187 -0.64844,2.015625 v 4.945312 h -1.44531 v -8.75 h 1.44531 v 1.359375 q 0.49219,-0.804687 1.17969,-1.1875 0.6875,-0.382812 1.63281,-0.382812 0.95312,0 1.61719,0.484375 0.67187,0.484375 0.99218,1.40625 z" />
      <path
         id="path920"
         style=""
         d="m 194.12109,73.548828 q 0.50782,0.171875 0.98438,0.734375 0.48437,0.5625 0.96875,1.546875 l 1.60156,3.1875 h -1.69531 l -1.49219,-2.992187 q -0.57812,-1.171875 -1.125,-1.554688 -0.53906,-0.382812 -1.47656,-0.382812 h -1.71875 v 4.929687 h -1.57813 V 67.353516 h 3.5625 q 2,0 2.98438,0.835937 0.98437,0.835938 0.98437,2.523438 0,1.101562 -0.51562,1.828125 -0.50781,0.726562 -1.48438,1.007812 z m -3.95312,-4.898437 v 4.140625 h 1.98437 q 1.14063,0 1.71875,-0.523438 0.58594,-0.53125 0.58594,-1.554687 0,-1.023438 -0.58594,-1.539063 -0.57812,-0.523437 -1.71875,-0.523437 z" />
      <path
         id="path922"
         style=""
         d="m 199.65234,70.267578 h 1.4375 v 8.75 h -1.4375 z m 0,-3.40625 h 1.4375 v 1.820313 h -1.4375 z" />
      <path
         id="path924"
         style=""
         d="m 209.84766,74.541016 q 0,-1.5625 -0.64844,-2.421875 -0.64063,-0.859375 -1.80469,-0.859375 -1.15625,0 -1.80469,0.859375 -0.64062,0.859375 -0.64062,2.421875 0,1.554687 0.64062,2.414062 0.64844,0.859375 1.80469,0.859375 1.16406,0 1.80469,-0.859375 0.64844,-0.859375 0.64844,-2.414062 z m 1.4375,3.390625 q 0,2.234375 -0.99219,3.320312 -0.99219,1.09375 -3.03906,1.09375 -0.75782,0 -1.42969,-0.117187 -0.67188,-0.109375 -1.30469,-0.34375 v -1.398438 q 0.63281,0.34375 1.25,0.507813 0.61719,0.164062 1.25781,0.164062 1.41407,0 2.11719,-0.742187 0.70313,-0.734375 0.70313,-2.226563 v -0.710937 q -0.44532,0.773437 -1.14063,1.15625 -0.69531,0.382812 -1.66406,0.382812 -1.60938,0 -2.59375,-1.226562 -0.98438,-1.226563 -0.98438,-3.25 0,-2.03125 0.98438,-3.257813 0.98437,-1.226562 2.59375,-1.226562 0.96875,0 1.66406,0.382812 0.69531,0.382813 1.14063,1.15625 v -1.328125 h 1.4375 z" />
      <path
         id="path926"
         style=""
         d="m 221.51953,73.736328 v 5.28125 h -1.4375 v -5.234375 q 0,-1.242187 -0.48437,-1.859375 -0.48438,-0.617187 -1.45313,-0.617187 -1.16406,0 -1.83594,0.742187 -0.67187,0.742188 -0.67187,2.023438 v 4.945312 h -1.44531 v -12.15625 h 1.44531 v 4.765625 q 0.51562,-0.789062 1.21094,-1.179687 0.70312,-0.390625 1.61718,-0.390625 1.50782,0 2.28125,0.9375 0.77344,0.929687 0.77344,2.742187 z" />
      <path
         id="path928"
         style=""
         d="m 225.82422,67.783203 v 2.484375 h 2.96094 v 1.117188 h -2.96094 v 4.75 q 0,1.070312 0.28906,1.375 0.29688,0.304687 1.19531,0.304687 h 1.47657 v 1.203125 h -1.47657 q -1.66406,0 -2.29687,-0.617187 -0.63281,-0.625 -0.63281,-2.265625 v -4.75 h -1.05469 v -1.117188 h 1.05469 v -2.484375 z" />
    </g>
  </g>
</svg>
